<svg width="81" height="92" viewBox="0 0 81 92" fill="none" xmlns="http://www.w3.org/2000/svg">
<rect x="7.46143" width="65.387" height="65.387" rx="16" fill="#FF9B53"/>
<path d="M45.7607 18.0427C45.1018 17.3904 44.2084 17.0239 43.2769 17.0239C42.3454 17.0239 41.452 17.3904 40.7931 18.0427L25.3656 33.3277C25.0393 33.651 24.7805 34.0347 24.6039 34.457C24.4273 34.8794 24.3364 35.332 24.3364 35.7891C24.3364 36.2462 24.4273 36.6989 24.6039 37.1212C24.7805 37.5435 25.0393 37.9273 25.3656 38.2505L27.1958 40.0621C27.9923 40.8527 29.112 40.7119 29.7882 40.3128C30.1612 40.0933 30.5973 40.0033 31.0277 40.0568C31.4582 40.1102 31.8584 40.3042 32.1651 40.6081C32.4718 40.912 32.6677 41.3085 32.7217 41.7349C32.7757 42.1613 32.6847 42.5934 32.4633 42.9629C32.0619 43.6328 31.9182 44.742 32.7162 45.531L34.5481 47.3442C34.8743 47.6674 35.2617 47.9238 35.688 48.0988C36.1143 48.2737 36.5712 48.3637 37.0326 48.3637C37.4941 48.3637 37.951 48.2737 38.3773 48.0988C38.8036 47.9238 39.1909 47.6674 39.5172 47.3442L54.9431 32.0622C55.2694 31.739 55.5282 31.3553 55.7048 30.9329C55.8814 30.5106 55.9723 30.058 55.9723 29.6009C55.9723 29.1437 55.8814 28.6911 55.7048 28.2688C55.5282 27.8464 55.2694 27.4627 54.9431 27.1395L53.1144 25.3263C52.318 24.5373 51.1968 24.6765 50.5206 25.0757C50.1476 25.2951 49.7114 25.3852 49.281 25.3317C48.8505 25.2782 48.4504 25.0842 48.1436 24.7803C47.8369 24.4764 47.641 24.08 47.587 23.6536C47.5331 23.2271 47.624 22.7951 47.8455 22.4255C48.2484 21.7557 48.3905 20.6464 47.5925 19.8574L45.7622 18.0427H45.7607Z" fill="white"/>
<path d="M5.63135 77.668L2.10107 87.3872H0.658203L4.72314 76.7231H5.65332L5.63135 77.668ZM8.59033 87.3872L5.05273 77.668L5.03076 76.7231H5.96094L10.0405 87.3872H8.59033ZM8.40723 83.4395V84.5967H2.41602V83.4395H8.40723ZM15.0497 79.4624V80.5024H10.765V79.4624H15.0497ZM12.2152 77.5361H13.5702V85.4243C13.5702 85.6929 13.6117 85.8955 13.6947 86.0322C13.7777 86.1689 13.8852 86.2593 14.017 86.3032C14.1488 86.3472 14.2904 86.3691 14.4418 86.3691C14.5541 86.3691 14.6713 86.3594 14.7934 86.3398C14.9203 86.3154 15.0155 86.2959 15.079 86.2812L15.0863 87.3872C14.9789 87.4214 14.8373 87.4531 14.6615 87.4824C14.4906 87.5166 14.2831 87.5337 14.039 87.5337C13.7069 87.5337 13.4018 87.4678 13.1234 87.3359C12.8451 87.2041 12.6229 86.9844 12.4569 86.6768C12.2958 86.3643 12.2152 85.9443 12.2152 85.417V77.5361ZM20.5569 79.4624V80.5024H16.2723V79.4624H20.5569ZM17.7225 77.5361H19.0774V85.4243C19.0774 85.6929 19.1189 85.8955 19.202 86.0322C19.285 86.1689 19.3924 86.2593 19.5242 86.3032C19.6561 86.3472 19.7977 86.3691 19.949 86.3691C20.0613 86.3691 20.1785 86.3594 20.3006 86.3398C20.4275 86.3154 20.5228 86.2959 20.5862 86.2812L20.5936 87.3872C20.4861 87.4214 20.3445 87.4531 20.1688 87.4824C19.9979 87.5166 19.7903 87.5337 19.5462 87.5337C19.2142 87.5337 18.909 87.4678 18.6307 87.3359C18.3523 87.2041 18.1302 86.9844 17.9642 86.6768C17.803 86.3643 17.7225 85.9443 17.7225 85.417V77.5361ZM24.1013 80.7075V87.3872H22.7463V79.4624H24.0646L24.1013 80.7075ZM26.5769 79.4185L26.5695 80.6782C26.4572 80.6538 26.3498 80.6392 26.2473 80.6343C26.1496 80.6245 26.0373 80.6196 25.9104 80.6196C25.5979 80.6196 25.322 80.6685 25.0827 80.7661C24.8435 80.8638 24.6408 81.0005 24.4748 81.1763C24.3088 81.3521 24.177 81.562 24.0793 81.8062C23.9865 82.0454 23.9255 82.3091 23.8962 82.5972L23.5153 82.8169C23.5153 82.3384 23.5617 81.8892 23.6545 81.4692C23.7521 81.0493 23.9011 80.6782 24.1013 80.356C24.3015 80.0288 24.5554 79.7749 24.863 79.5942C25.1755 79.4087 25.5466 79.3159 25.9763 79.3159C26.0739 79.3159 26.1862 79.3281 26.3132 79.3525C26.4401 79.3721 26.528 79.394 26.5769 79.4185ZM32.8092 86.0322V81.9526C32.8092 81.6401 32.7457 81.3691 32.6187 81.1396C32.4967 80.9053 32.3111 80.7246 32.0621 80.5977C31.8131 80.4707 31.5055 80.4072 31.1393 80.4072C30.7975 80.4072 30.4972 80.4658 30.2384 80.583C29.9845 80.7002 29.7843 80.854 29.6378 81.0444C29.4962 81.2349 29.4254 81.4399 29.4254 81.6597H28.0704C28.0704 81.3765 28.1437 81.0957 28.2901 80.8174C28.4366 80.5391 28.6466 80.2876 28.92 80.063C29.1983 79.8335 29.5304 79.6528 29.9161 79.521C30.3067 79.3843 30.7413 79.3159 31.2198 79.3159C31.796 79.3159 32.3038 79.4136 32.7433 79.6089C33.1876 79.8042 33.5343 80.0996 33.7833 80.4951C34.0372 80.8857 34.1642 81.3765 34.1642 81.9673V85.6587C34.1642 85.9224 34.1861 86.2031 34.2301 86.501C34.2789 86.7988 34.3497 87.0552 34.4425 87.27V87.3872H33.0289C32.9605 87.231 32.9068 87.0234 32.8678 86.7646C32.8287 86.501 32.8092 86.2568 32.8092 86.0322ZM33.0436 82.5825L33.0582 83.5347H31.6886C31.3028 83.5347 30.9586 83.5664 30.6559 83.6299C30.3531 83.6885 30.0992 83.7788 29.8941 83.9009C29.6891 84.0229 29.5328 84.1768 29.4254 84.3623C29.318 84.543 29.2643 84.7554 29.2643 84.9995C29.2643 85.2485 29.3204 85.4756 29.4327 85.6807C29.545 85.8857 29.7135 86.0493 29.9381 86.1714C30.1676 86.2886 30.4483 86.3472 30.7804 86.3472C31.1954 86.3472 31.5616 86.2593 31.879 86.0835C32.1964 85.9077 32.4479 85.6929 32.6334 85.439C32.8238 85.1851 32.9264 84.9385 32.941 84.6992L33.5196 85.3511C33.4854 85.5562 33.3927 85.7832 33.2413 86.0322C33.0899 86.2812 32.8873 86.5205 32.6334 86.75C32.3844 86.9746 32.0865 87.1626 31.7398 87.314C31.398 87.4604 31.0123 87.5337 30.5826 87.5337C30.0455 87.5337 29.5743 87.4287 29.169 87.2188C28.7687 87.0088 28.4562 86.728 28.2315 86.3765C28.0118 86.02 27.902 85.6221 27.902 85.1826C27.902 84.7578 27.985 84.3843 28.151 84.062C28.317 83.7349 28.5562 83.4639 28.8687 83.249C29.1812 83.0293 29.5572 82.8633 29.9967 82.751C30.4361 82.6387 30.9269 82.5825 31.4688 82.5825H33.0436ZM40.0669 86.4204C40.3892 86.4204 40.687 86.3545 40.9604 86.2227C41.2339 86.0908 41.4585 85.9102 41.6343 85.6807C41.8101 85.4463 41.9102 85.1802 41.9346 84.8823H43.2236C43.1992 85.3511 43.0405 85.7881 42.7476 86.1934C42.4595 86.5938 42.0811 86.9185 41.6123 87.1675C41.1436 87.4116 40.6284 87.5337 40.0669 87.5337C39.4712 87.5337 38.9512 87.4287 38.5068 87.2188C38.0674 87.0088 37.7012 86.7207 37.4082 86.3545C37.1201 85.9883 36.9028 85.5684 36.7563 85.0947C36.6147 84.6162 36.5439 84.1108 36.5439 83.5786V83.271C36.5439 82.7388 36.6147 82.2358 36.7563 81.7622C36.9028 81.2837 37.1201 80.8613 37.4082 80.4951C37.7012 80.1289 38.0674 79.8408 38.5068 79.6309C38.9512 79.4209 39.4712 79.3159 40.0669 79.3159C40.687 79.3159 41.229 79.4429 41.6929 79.6968C42.1567 79.9458 42.5205 80.2876 42.7842 80.7222C43.0527 81.1519 43.1992 81.6401 43.2236 82.187H41.9346C41.9102 81.8599 41.8174 81.5645 41.6562 81.3008C41.5 81.0371 41.2852 80.8271 41.0117 80.6709C40.7432 80.5098 40.4282 80.4292 40.0669 80.4292C39.6519 80.4292 39.3027 80.5122 39.0195 80.6782C38.7412 80.8394 38.519 81.0591 38.353 81.3374C38.1919 81.6108 38.0747 81.916 38.0015 82.2529C37.9331 82.585 37.8989 82.9243 37.8989 83.271V83.5786C37.8989 83.9253 37.9331 84.2671 38.0015 84.604C38.0698 84.9409 38.1846 85.2461 38.3457 85.5195C38.5117 85.793 38.7339 86.0127 39.0122 86.1787C39.2954 86.3398 39.647 86.4204 40.0669 86.4204ZM48.6649 79.4624V80.5024H44.3803V79.4624H48.6649ZM45.8305 77.5361H47.1854V85.4243C47.1854 85.6929 47.227 85.8955 47.31 86.0322C47.393 86.1689 47.5004 86.2593 47.6322 86.3032C47.7641 86.3472 47.9057 86.3691 48.057 86.3691C48.1693 86.3691 48.2865 86.3594 48.4086 86.3398C48.5355 86.3154 48.6308 86.2959 48.6942 86.2812L48.7016 87.3872C48.5941 87.4214 48.4525 87.4531 48.2768 87.4824C48.1059 87.5166 47.8983 87.5337 47.6542 87.5337C47.3222 87.5337 47.017 87.4678 46.7387 87.3359C46.4604 87.2041 46.2382 86.9844 46.0722 86.6768C45.911 86.3643 45.8305 85.9443 45.8305 85.417V77.5361ZM52.3265 79.4624V87.3872H50.9642V79.4624H52.3265ZM50.8616 77.3604C50.8616 77.1406 50.9275 76.9551 51.0594 76.8037C51.1961 76.6523 51.3963 76.5767 51.66 76.5767C51.9188 76.5767 52.1165 76.6523 52.2532 76.8037C52.3948 76.9551 52.4656 77.1406 52.4656 77.3604C52.4656 77.5703 52.3948 77.751 52.2532 77.9023C52.1165 78.0488 51.9188 78.1221 51.66 78.1221C51.3963 78.1221 51.1961 78.0488 51.0594 77.9023C50.9275 77.751 50.8616 77.5703 50.8616 77.3604ZM54.7429 83.5127V83.3442C54.7429 82.7729 54.8259 82.2432 54.9919 81.7549C55.1579 81.2617 55.3972 80.8345 55.7097 80.4731C56.0222 80.1069 56.4006 79.8237 56.8449 79.6235C57.2893 79.4185 57.7873 79.3159 58.3391 79.3159C58.8957 79.3159 59.3962 79.4185 59.8405 79.6235C60.2897 79.8237 60.6706 80.1069 60.9831 80.4731C61.3005 80.8345 61.5422 81.2617 61.7082 81.7549C61.8742 82.2432 61.9572 82.7729 61.9572 83.3442V83.5127C61.9572 84.084 61.8742 84.6138 61.7082 85.1021C61.5422 85.5903 61.3005 86.0176 60.9831 86.3838C60.6706 86.7451 60.2922 87.0283 59.8479 87.2334C59.4084 87.4336 58.9104 87.5337 58.3537 87.5337C57.7971 87.5337 57.2966 87.4336 56.8522 87.2334C56.4079 87.0283 56.0271 86.7451 55.7097 86.3838C55.3972 86.0176 55.1579 85.5903 54.9919 85.1021C54.8259 84.6138 54.7429 84.084 54.7429 83.5127ZM56.0979 83.3442V83.5127C56.0979 83.9082 56.1442 84.2817 56.237 84.6333C56.3298 84.98 56.4689 85.2876 56.6545 85.5562C56.8449 85.8247 57.0817 86.0371 57.3649 86.1934C57.6481 86.3447 57.9777 86.4204 58.3537 86.4204C58.7248 86.4204 59.0495 86.3447 59.3278 86.1934C59.611 86.0371 59.8454 85.8247 60.031 85.5562C60.2165 85.2876 60.3557 84.98 60.4484 84.6333C60.5461 84.2817 60.5949 83.9082 60.5949 83.5127V83.3442C60.5949 82.9536 60.5461 82.585 60.4484 82.2383C60.3557 81.8867 60.2141 81.5767 60.0236 81.3081C59.8381 81.0347 59.6037 80.8198 59.3205 80.6636C59.0422 80.5073 58.715 80.4292 58.3391 80.4292C57.968 80.4292 57.6408 80.5073 57.3576 80.6636C57.0793 80.8198 56.8449 81.0347 56.6545 81.3081C56.4689 81.5767 56.3298 81.8867 56.237 82.2383C56.1442 82.585 56.0979 82.9536 56.0979 83.3442ZM65.6114 81.1543V87.3872H64.2564V79.4624H65.5382L65.6114 81.1543ZM65.2892 83.1245L64.7252 83.1025C64.7301 82.5605 64.8106 82.0601 64.9669 81.6011C65.1231 81.1372 65.3429 80.7344 65.6261 80.3926C65.9093 80.0508 66.2462 79.7871 66.6368 79.6016C67.0323 79.4111 67.4693 79.3159 67.9479 79.3159C68.3385 79.3159 68.69 79.3696 69.0025 79.4771C69.315 79.5796 69.5812 79.7456 69.8009 79.9751C70.0255 80.2046 70.1964 80.5024 70.3136 80.8687C70.4308 81.23 70.4894 81.6719 70.4894 82.1943V87.3872H69.1271V82.1797C69.1271 81.7646 69.066 81.4326 68.9439 81.1836C68.8219 80.9297 68.6437 80.7466 68.4093 80.6343C68.1749 80.5171 67.8868 80.4585 67.545 80.4585C67.2081 80.4585 66.9005 80.5293 66.6222 80.6709C66.3487 80.8125 66.1119 81.0078 65.9117 81.2568C65.7164 81.5059 65.5626 81.7915 65.4503 82.1138C65.3429 82.4312 65.2892 82.7681 65.2892 83.1245ZM77.7617 85.2852C77.7617 85.0898 77.7178 84.9092 77.6299 84.7432C77.5469 84.5723 77.3735 84.4185 77.1099 84.2817C76.8511 84.1401 76.4604 84.0181 75.938 83.9155C75.4985 83.8228 75.1006 83.7129 74.7441 83.5859C74.3926 83.459 74.0923 83.3052 73.8433 83.1245C73.5991 82.9438 73.4111 82.7314 73.2793 82.4873C73.1475 82.2432 73.0815 81.9575 73.0815 81.6304C73.0815 81.3179 73.1499 81.0225 73.2866 80.7441C73.4282 80.4658 73.626 80.2192 73.8799 80.0044C74.1387 79.7896 74.4487 79.6211 74.8101 79.499C75.1714 79.377 75.5742 79.3159 76.0186 79.3159C76.6533 79.3159 77.1953 79.4282 77.6445 79.6528C78.0938 79.8774 78.438 80.1777 78.6772 80.5537C78.9165 80.9248 79.0361 81.3374 79.0361 81.7915H77.6812C77.6812 81.5718 77.6152 81.3594 77.4834 81.1543C77.3564 80.9443 77.1685 80.771 76.9194 80.6343C76.6753 80.4976 76.375 80.4292 76.0186 80.4292C75.6426 80.4292 75.3374 80.4878 75.103 80.605C74.8735 80.7173 74.7051 80.8613 74.5977 81.0371C74.4951 81.2129 74.4438 81.3984 74.4438 81.5938C74.4438 81.7402 74.4683 81.8721 74.5171 81.9893C74.5708 82.1016 74.6636 82.2065 74.7954 82.3042C74.9272 82.397 75.1128 82.4849 75.3521 82.5679C75.5913 82.6509 75.8965 82.7339 76.2676 82.8169C76.917 82.9634 77.4517 83.1392 77.8716 83.3442C78.2915 83.5493 78.604 83.8008 78.8091 84.0986C79.0142 84.3965 79.1167 84.7578 79.1167 85.1826C79.1167 85.5293 79.0435 85.8467 78.897 86.1348C78.7554 86.4229 78.5479 86.6719 78.2744 86.8818C78.0059 87.0869 77.6836 87.248 77.3076 87.3652C76.9365 87.4775 76.519 87.5337 76.0552 87.5337C75.3569 87.5337 74.7661 87.4092 74.2827 87.1602C73.7993 86.9111 73.4331 86.5889 73.1841 86.1934C72.9351 85.7979 72.8105 85.3804 72.8105 84.9409H74.1729C74.1924 85.312 74.2998 85.6074 74.4951 85.8271C74.6904 86.042 74.9297 86.1958 75.2129 86.2886C75.4961 86.3765 75.7769 86.4204 76.0552 86.4204C76.4263 86.4204 76.7363 86.3716 76.9854 86.2739C77.2393 86.1763 77.4321 86.042 77.564 85.8711C77.6958 85.7002 77.7617 85.5049 77.7617 85.2852Z" fill="#8E8E94"/>
</svg>
