<svg width="71" height="92" viewBox="0 0 71 92" fill="none" xmlns="http://www.w3.org/2000/svg">
<rect x="2.38379" width="65.387" height="65.387" rx="16" fill="#FDBF00"/>
<path d="M21.6182 40.6668C21.6182 42.1335 22.2743 43.4502 23.3005 44.3668V46.5002C23.3005 47.8835 24.4277 49.0002 25.8241 49.0002C27.2204 49.0002 28.3476 47.8835 28.3476 46.5002V45.6668H41.8065V46.5002C41.8065 47.8668 42.9337 49.0002 44.3301 49.0002C45.7096 49.0002 46.8536 47.8835 46.8536 46.5002V44.3668C47.8799 43.4502 48.536 42.1335 48.536 40.6668V24.0002C48.536 18.1668 42.5131 17.3335 35.0771 17.3335C27.641 17.3335 21.6182 18.1668 21.6182 24.0002V40.6668ZM27.5064 42.3335C26.1101 42.3335 24.9829 41.2168 24.9829 39.8335C24.9829 38.4502 26.1101 37.3335 27.5064 37.3335C28.9028 37.3335 30.03 38.4502 30.03 39.8335C30.03 41.2168 28.9028 42.3335 27.5064 42.3335ZM42.6477 42.3335C41.2514 42.3335 40.1242 41.2168 40.1242 39.8335C40.1242 38.4502 41.2514 37.3335 42.6477 37.3335C44.0441 37.3335 45.1713 38.4502 45.1713 39.8335C45.1713 41.2168 44.0441 42.3335 42.6477 42.3335ZM45.1713 32.3335H24.9829V24.0002H45.1713V32.3335Z" fill="white"/>
<path d="M9.47344 84.0034C9.3416 85.1313 8.92412 86.0029 8.221 86.6182C7.52275 87.2285 6.59258 87.5337 5.43047 87.5337C4.1707 87.5337 3.15996 87.082 2.39824 86.1787C1.64141 85.2754 1.26299 84.0669 1.26299 82.5532V81.5278C1.26299 80.5366 1.43877 79.665 1.79033 78.9131C2.14678 78.1611 2.64971 77.585 3.29912 77.1846C3.94854 76.7793 4.70049 76.5767 5.55498 76.5767C6.68779 76.5767 7.596 76.894 8.27959 77.5288C8.96318 78.1587 9.36113 79.0327 9.47344 80.1509H8.05986C7.93779 79.3013 7.67168 78.686 7.26152 78.3052C6.85625 77.9243 6.2874 77.7339 5.55498 77.7339C4.65654 77.7339 3.95098 78.0659 3.43828 78.73C2.93047 79.394 2.67656 80.3389 2.67656 81.5645V82.5972C2.67656 83.7544 2.91826 84.6748 3.40166 85.3584C3.88506 86.042 4.56133 86.3838 5.43047 86.3838C6.21172 86.3838 6.80986 86.208 7.2249 85.8564C7.64482 85.5 7.92315 84.8823 8.05986 84.0034H9.47344ZM11.4284 83.3516C11.4284 82.5752 11.5798 81.877 11.8825 81.2568C12.1901 80.6367 12.6149 80.1582 13.1569 79.8213C13.7038 79.4844 14.3264 79.3159 15.0246 79.3159C16.1037 79.3159 16.9753 79.6895 17.6394 80.4365C18.3083 81.1836 18.6428 82.1772 18.6428 83.4175V83.5127C18.6428 84.2842 18.4938 84.9775 18.196 85.5928C17.903 86.2031 17.4807 86.6792 16.9289 87.021C16.382 87.3628 15.7521 87.5337 15.0393 87.5337C13.965 87.5337 13.0935 87.1602 12.4245 86.4131C11.7605 85.666 11.4284 84.6772 11.4284 83.4468V83.3516ZM12.7907 83.5127C12.7907 84.3916 12.9934 85.0972 13.3986 85.6294C13.8088 86.1616 14.3557 86.4277 15.0393 86.4277C15.7277 86.4277 16.2746 86.1592 16.6799 85.6221C17.0852 85.0801 17.2878 84.3232 17.2878 83.3516C17.2878 82.4824 17.0803 81.7793 16.6652 81.2422C16.2551 80.7002 15.7082 80.4292 15.0246 80.4292C14.3557 80.4292 13.8161 80.6953 13.406 81.2275C12.9958 81.7598 12.7907 82.5215 12.7907 83.5127ZM22.2164 79.4624L22.253 80.3413C22.8341 79.6577 23.6178 79.3159 24.6041 79.3159C25.7125 79.3159 26.4669 79.7407 26.8673 80.5903C27.131 80.2095 27.4728 79.9019 27.8927 79.6675C28.3175 79.4331 28.818 79.3159 29.3941 79.3159C31.1324 79.3159 32.0162 80.2363 32.0455 82.0771V87.3872H30.6905V82.1577C30.6905 81.5913 30.5611 81.1689 30.3023 80.8906C30.0436 80.6074 29.609 80.4658 28.9986 80.4658C28.4957 80.4658 28.0782 80.6172 27.7462 80.9199C27.4142 81.2178 27.2213 81.6206 27.1676 82.1284V87.3872H25.8053V82.1943C25.8053 81.042 25.2413 80.4658 24.1134 80.4658C23.2247 80.4658 22.6168 80.8442 22.2896 81.6011V87.3872H20.9347V79.4624H22.2164ZM35.9707 79.4624L36.0073 80.3413C36.5884 79.6577 37.3721 79.3159 38.3584 79.3159C39.4668 79.3159 40.2212 79.7407 40.6216 80.5903C40.8853 80.2095 41.2271 79.9019 41.647 79.6675C42.0718 79.4331 42.5723 79.3159 43.1484 79.3159C44.8867 79.3159 45.7705 80.2363 45.7998 82.0771V87.3872H44.4448V82.1577C44.4448 81.5913 44.3154 81.1689 44.0566 80.8906C43.7979 80.6074 43.3633 80.4658 42.7529 80.4658C42.25 80.4658 41.8325 80.6172 41.5005 80.9199C41.1685 81.2178 40.9756 81.6206 40.9219 82.1284V87.3872H39.5596V82.1943C39.5596 81.042 38.9956 80.4658 37.8677 80.4658C36.979 80.4658 36.3711 80.8442 36.0439 81.6011V87.3872H34.689V79.4624H35.9707ZM53.3432 86.6035C52.8158 87.2236 52.0419 87.5337 51.0214 87.5337C50.1767 87.5337 49.5321 87.2896 49.0878 86.8013C48.6483 86.3081 48.4262 85.5806 48.4213 84.6187V79.4624H49.7763V84.582C49.7763 85.7832 50.2646 86.3838 51.2411 86.3838C52.2763 86.3838 52.9647 85.998 53.3065 85.2266V79.4624H54.6615V87.3872H53.3725L53.3432 86.6035ZM59.1653 77.5435V79.4624H60.6448V80.5098H59.1653V85.4243C59.1653 85.7417 59.2313 85.981 59.3631 86.1421C59.4949 86.2983 59.7195 86.3765 60.0369 86.3765C60.1932 86.3765 60.408 86.3472 60.6814 86.2886V87.3872C60.325 87.4849 59.9783 87.5337 59.6414 87.5337C59.0359 87.5337 58.5794 87.3506 58.2718 86.9844C57.9642 86.6182 57.8104 86.0981 57.8104 85.4243V80.5098H56.3675V79.4624H57.8104V77.5435H59.1653ZM66.1228 87.5337C65.0485 87.5337 64.1745 87.1821 63.5007 86.479C62.8269 85.771 62.4899 84.8262 62.4899 83.6445V83.3955C62.4899 82.6094 62.6389 81.9087 62.9367 81.2935C63.2395 80.6733 63.6594 80.1899 64.1965 79.8433C64.7385 79.4917 65.3244 79.3159 65.9543 79.3159C66.9846 79.3159 67.7854 79.6553 68.3566 80.334C68.9279 81.0127 69.2136 81.9844 69.2136 83.249V83.813H63.8449C63.8645 84.5942 64.0915 85.2266 64.5261 85.71C64.9655 86.1885 65.5222 86.4277 66.196 86.4277C66.6745 86.4277 67.0798 86.3301 67.4118 86.1348C67.7438 85.9395 68.0344 85.6807 68.2834 85.3584L69.111 86.0029C68.447 87.0234 67.4509 87.5337 66.1228 87.5337ZM65.9543 80.4292C65.4074 80.4292 64.9484 80.6294 64.5773 81.0298C64.2062 81.4253 63.9768 81.9819 63.8889 82.6997H67.8586V82.5972C67.8195 81.9087 67.634 81.3765 67.302 81.0005C66.9699 80.6196 66.5207 80.4292 65.9543 80.4292Z" fill="#8E8E94"/>
</svg>
