<svg width="67" height="92" viewBox="0 0 67 92" fill="none" xmlns="http://www.w3.org/2000/svg">
<rect x="0.922852" width="65.387" height="65.387" rx="16" fill="#36DA76"/>
<path d="M42.0841 45.4382C42.0293 44.2648 41.9566 43.0976 41.8984 41.933C41.7102 38.2898 41.7256 34.5932 41.5288 30.932C41.3319 27.2982 41.4487 23.662 41.3448 20.0283C41.3239 19.2732 41.3576 17.7817 40.5762 17.3512C38.8952 16.4264 37.8973 18.949 37.4696 19.976C36.6987 21.8401 36.2533 23.8007 35.7027 25.732C35.2334 27.3851 34.6989 29.0328 34.5178 30.7444C34.3836 32.0287 34.3959 33.4664 35.0669 34.6236C35.4038 35.2052 35.9863 35.601 36.6496 35.7683C37.3381 35.9445 38.1252 35.7139 38.7784 36.0248C38.9468 36.1061 39.0952 36.2752 39.1628 36.4459C39.3745 36.9962 39.1742 37.831 39.108 38.3987C38.8983 40.2274 38.6766 42.0743 38.5773 43.9118C38.5186 45.023 38.4537 46.4462 39.1259 47.4144C39.538 48.0023 40.373 48.5513 41.1265 48.2591C42.2526 47.8281 42.1309 46.372 42.0841 45.4382Z" fill="white"/>
<path d="M27.7576 18.1624C27.4339 18.2921 27.5567 19.4492 27.5422 19.8047C27.521 20.4434 27.5646 21.2886 27.4877 22.1163C27.4872 22.1237 27.4861 22.1289 27.485 22.134C27.4784 22.1915 27.473 22.2536 27.4635 22.3191C27.4534 22.3824 27.4427 22.4434 27.4349 22.506C27.366 22.9096 27.2346 23.3875 26.9864 23.6167C26.7045 23.8787 26.073 23.8236 25.8537 23.514C25.4948 23.0099 25.5217 21.8845 25.4999 21.8513C25.4853 21.3189 25.4078 19.7086 25.2914 18.6469C25.2818 18.5669 25.2663 18.0857 24.8269 18.0343C24.6221 18.012 24.4065 18.1866 24.3366 18.5055C24.1302 19.4468 23.937 21.2411 23.9248 21.5233C23.9223 21.5506 23.9211 21.5825 23.921 21.6092C23.921 21.6092 23.9199 21.6143 23.9205 21.6166C23.9192 21.6751 23.8494 23.0809 23.4937 23.5659C23.3078 23.8202 22.8251 24.0201 22.3454 23.7511C22.1543 23.6428 22.0234 23.434 21.9311 23.2104C21.4294 21.649 21.8797 19.929 21.9438 19.1094C21.9628 18.8789 22.1715 18.1092 21.7058 18.1349C21.0046 18.173 20.099 21.1607 19.9371 21.8455C19.5401 23.5493 19.4799 25.3699 20.1704 27.0134C20.5541 27.9236 21.3043 28.6686 22.2347 29.0298C22.6459 29.188 23.1028 29.3028 23.5867 29.3694C23.4126 33.2428 23.2149 37.2848 23.0349 39.5342C22.8965 41.227 22.733 42.9385 22.755 44.6383C22.768 45.6539 22.7573 46.8649 23.424 47.7164C24.1213 48.6061 25.5923 48.1968 25.9894 47.1456C26.4349 45.9605 26.3053 44.5796 26.1536 42.4037C26.0013 40.2256 25.8299 37.2543 25.7354 35.6557C25.5971 33.3017 25.5488 31.2447 25.5356 29.3679C26.7742 29.1909 27.9295 28.6594 28.576 27.682C28.8597 27.2545 29.0464 26.7768 29.174 26.2853C29.3696 25.5408 29.465 24.7253 29.4227 23.9574C29.3798 23.2504 28.7987 17.7453 27.7576 18.1624Z" fill="white"/>
<path d="M25.3188 82.458H20.6972V86.2373H26.0658V87.3872H19.2909V76.7231H25.9926V77.8804H20.6972V81.3081H25.3188V82.458ZM33.0965 87.3872C33.0184 87.231 32.9549 86.9526 32.9061 86.5522C32.2762 87.2065 31.5242 87.5337 30.6502 87.5337C29.8689 87.5337 29.2269 87.314 28.7239 86.8745C28.2259 86.4302 27.9769 85.8687 27.9769 85.1899C27.9769 84.3647 28.2894 83.7251 28.9144 83.271C29.5442 82.812 30.428 82.5825 31.5657 82.5825H32.8841V81.96C32.8841 81.4863 32.7425 81.1104 32.4593 80.832C32.1761 80.5488 31.7586 80.4072 31.2068 80.4072C30.7234 80.4072 30.3182 80.5293 29.991 80.7734C29.6639 81.0176 29.5003 81.313 29.5003 81.6597H28.138C28.138 81.2642 28.2771 80.8833 28.5555 80.5171C28.8387 80.146 29.2195 79.853 29.698 79.6382C30.1814 79.4233 30.7112 79.3159 31.2874 79.3159C32.2005 79.3159 32.9158 79.5454 33.4334 80.0044C33.951 80.4585 34.2195 81.0859 34.2391 81.8867V85.5342C34.2391 86.2617 34.3318 86.8403 34.5174 87.27V87.3872H33.0965ZM30.8479 86.3545C31.2728 86.3545 31.6756 86.2446 32.0564 86.0249C32.4373 85.8052 32.7132 85.5195 32.8841 85.168V83.542H31.8221C30.1619 83.542 29.3318 84.0278 29.3318 84.9995C29.3318 85.4243 29.4734 85.7563 29.7566 85.9956C30.0398 86.2349 30.4036 86.3545 30.8479 86.3545ZM38.8015 77.5435V79.4624H40.281V80.5098H38.8015V85.4243C38.8015 85.7417 38.8674 85.981 38.9992 86.1421C39.1311 86.2983 39.3557 86.3765 39.673 86.3765C39.8293 86.3765 40.0441 86.3472 40.3176 86.2886V87.3872C39.9611 87.4849 39.6145 87.5337 39.2775 87.5337C38.6721 87.5337 38.2155 87.3506 37.9079 86.9844C37.6003 86.6182 37.4465 86.0981 37.4465 85.4243V80.5098H36.0036V79.4624H37.4465V77.5435H38.8015ZM47.0846 85.2852C47.0846 84.9189 46.9454 84.6357 46.6671 84.4355C46.3937 84.2305 45.9127 84.0547 45.2242 83.9082C44.5406 83.7617 43.9962 83.5859 43.5909 83.3809C43.1905 83.1758 42.8927 82.9316 42.6974 82.6484C42.5069 82.3652 42.4117 82.0283 42.4117 81.6377C42.4117 80.9883 42.6852 80.439 43.232 79.9897C43.7838 79.5405 44.4869 79.3159 45.3414 79.3159C46.2398 79.3159 46.9674 79.5479 47.524 80.0117C48.0855 80.4756 48.3663 81.0688 48.3663 81.7915H47.004C47.004 81.4204 46.8453 81.1006 46.5279 80.832C46.2154 80.5635 45.8199 80.4292 45.3414 80.4292C44.8482 80.4292 44.4625 80.5366 44.1842 80.7515C43.9059 80.9663 43.7667 81.2471 43.7667 81.5938C43.7667 81.9209 43.8961 82.1675 44.1549 82.3335C44.4137 82.4995 44.88 82.6582 45.5538 82.8096C46.2325 82.9609 46.7818 83.1416 47.2018 83.3516C47.6217 83.5615 47.9317 83.8154 48.1319 84.1133C48.337 84.4062 48.4396 84.7651 48.4396 85.1899C48.4396 85.8979 48.1563 86.4668 47.5899 86.8965C47.0235 87.3213 46.2887 87.5337 45.3854 87.5337C44.7506 87.5337 44.1891 87.4214 43.7008 87.1968C43.2125 86.9722 42.8292 86.6597 42.5509 86.2593C42.2774 85.854 42.1407 85.417 42.1407 84.9482H43.4957C43.5201 85.4023 43.7008 85.7637 44.0377 86.0322C44.3795 86.2959 44.8287 86.4277 45.3854 86.4277C45.898 86.4277 46.3082 86.3252 46.6158 86.1201C46.9283 85.9102 47.0846 85.6318 47.0846 85.2852Z" fill="#8E8E94"/>
</svg>
