<svg width="170" height="18" viewBox="0 0 200 25" fill="none" xmlns="http://www.w3.org/2000/svg">
<rect x="0.107422" y="0.887207" width="199.893" height="24" rx="12" fill="white"/>
<path d="M25.9224 15.5493L29.2886 5.09033H31.7232L27.1353 17.8872H25.4918L25.9224 15.5493ZM22.8111 5.09033L26.1509 15.5493L26.608 17.8872H24.9556L20.3853 5.09033H22.8111ZM35.9325 8.37744V17.8872H33.8055V8.37744H35.9325ZM33.6649 5.88135C33.6649 5.55908 33.7704 5.29248 33.9813 5.08154C34.1981 4.86475 34.4969 4.75635 34.8778 4.75635C35.2528 4.75635 35.5487 4.86475 35.7655 5.08154C35.9823 5.29248 36.0907 5.55908 36.0907 5.88135C36.0907 6.19775 35.9823 6.46143 35.7655 6.67236C35.5487 6.8833 35.2528 6.98877 34.8778 6.98877C34.4969 6.98877 34.1981 6.8833 33.9813 6.67236C33.7704 6.46143 33.6649 6.19775 33.6649 5.88135ZM43.1652 18.063C42.462 18.063 41.8263 17.9487 41.2579 17.7202C40.6954 17.4858 40.215 17.1606 39.8165 16.7446C39.424 16.3286 39.1222 15.8394 38.9113 15.2769C38.7003 14.7144 38.5948 14.1079 38.5948 13.4575V13.106C38.5948 12.3618 38.7032 11.688 38.92 11.0845C39.1368 10.481 39.4386 9.96533 39.8253 9.5376C40.212 9.104 40.6691 8.77295 41.1964 8.54443C41.7238 8.31592 42.295 8.20166 42.9103 8.20166C43.59 8.20166 44.1847 8.31592 44.6945 8.54443C45.2042 8.77295 45.6261 9.09521 45.9601 9.51123C46.2999 9.92139 46.5519 10.4106 46.7159 10.979C46.8859 11.5474 46.9708 12.1743 46.9708 12.8599V13.7651H39.6232V12.2446H44.879V12.0776C44.8673 11.6968 44.7911 11.3394 44.6505 11.0054C44.5157 10.6714 44.3077 10.4019 44.0265 10.1968C43.7452 9.9917 43.3702 9.88916 42.9015 9.88916C42.5499 9.88916 42.2365 9.96533 41.9611 10.1177C41.6915 10.2642 41.4659 10.478 41.2843 10.7593C41.1027 11.0405 40.962 11.3804 40.8624 11.7788C40.7687 12.1714 40.7218 12.6138 40.7218 13.106V13.4575C40.7218 13.8735 40.7775 14.2603 40.8888 14.6177C41.006 14.9692 41.1759 15.2769 41.3986 15.5405C41.6212 15.8042 41.8907 16.0122 42.2072 16.1646C42.5236 16.311 42.8839 16.3843 43.2882 16.3843C43.798 16.3843 44.2521 16.2817 44.6505 16.0767C45.049 15.8716 45.3947 15.5815 45.6876 15.2065L46.8038 16.2876C46.5988 16.5864 46.3322 16.8735 46.004 17.1489C45.6759 17.4185 45.2745 17.6382 44.7999 17.8081C44.3312 17.978 43.7863 18.063 43.1652 18.063ZM51.9272 15.7778L54.1244 8.37744H55.4779L55.1088 10.5923L52.8939 17.8872H51.6811L51.9272 15.7778ZM50.6352 8.37744L52.349 15.813L52.4897 17.8872H51.1361L48.5609 8.37744H50.6352ZM57.5346 15.7251L59.1957 8.37744H61.2611L58.6947 17.8872H57.3412L57.5346 15.7251ZM55.7064 8.37744L57.8773 15.6899L58.1498 17.8872H56.9369L54.6957 10.5835L54.3266 8.37744H55.7064ZM73.9863 15.98V11.4448C73.9863 11.105 73.9248 10.812 73.8017 10.5659C73.6787 10.3198 73.4912 10.1294 73.2392 9.99463C72.9931 9.85986 72.6826 9.79248 72.3076 9.79248C71.9619 9.79248 71.663 9.85107 71.4111 9.96826C71.1591 10.0854 70.9629 10.2437 70.8222 10.4429C70.6816 10.6421 70.6113 10.8677 70.6113 11.1196H68.5019C68.5019 10.7446 68.5927 10.3813 68.7744 10.0298C68.956 9.67822 69.2197 9.36475 69.5654 9.08936C69.9111 8.81396 70.3242 8.59717 70.8046 8.43896C71.2851 8.28076 71.8242 8.20166 72.4218 8.20166C73.1367 8.20166 73.7695 8.32178 74.3203 8.56201C74.8769 8.80225 75.3134 9.16553 75.6298 9.65186C75.9521 10.1323 76.1132 10.7358 76.1132 11.4624V15.6899C76.1132 16.1235 76.1425 16.5132 76.2011 16.8589C76.2656 17.1987 76.3564 17.4946 76.4736 17.7466V17.8872H74.3027C74.2031 17.6587 74.124 17.3687 74.0654 17.0171C74.0127 16.6597 73.9863 16.314 73.9863 15.98ZM74.2939 12.104L74.3115 13.4136H72.791C72.3984 13.4136 72.0527 13.4517 71.7539 13.5278C71.455 13.5981 71.206 13.7036 71.0068 13.8442C70.8076 13.9849 70.6582 14.1548 70.5586 14.354C70.4589 14.5532 70.4091 14.7788 70.4091 15.0308C70.4091 15.2827 70.4677 15.5142 70.5849 15.7251C70.7021 15.9302 70.872 16.0913 71.0947 16.2085C71.3232 16.3257 71.5986 16.3843 71.9209 16.3843C72.3545 16.3843 72.7324 16.2964 73.0546 16.1206C73.3828 15.939 73.6406 15.7192 73.8281 15.4614C74.0156 15.1978 74.1152 14.9487 74.1269 14.7144L74.8125 15.6548C74.7421 15.895 74.622 16.1528 74.4521 16.4282C74.2822 16.7036 74.0595 16.9673 73.7841 17.2192C73.5146 17.4653 73.1894 17.6675 72.8086 17.8257C72.4336 17.9839 72 18.063 71.5078 18.063C70.8867 18.063 70.333 17.9399 69.8466 17.6938C69.3603 17.4419 68.9795 17.105 68.7041 16.6831C68.4287 16.2554 68.291 15.772 68.291 15.2329C68.291 14.729 68.3847 14.2837 68.5722 13.897C68.7656 13.5044 69.0468 13.1763 69.416 12.9126C69.791 12.6489 70.248 12.4497 70.7871 12.3149C71.3261 12.1743 71.9414 12.104 72.6328 12.104H74.2939ZM81.3157 4.38721V17.8872H79.1887V4.38721H81.3157ZM86.6236 4.38721V17.8872H84.4966V4.38721H86.6236ZM96.9581 4.38721V17.8872H94.8487V4.38721H96.9581ZM96.589 12.7808L95.9034 12.772C95.9093 12.1157 96.0001 11.5093 96.1759 10.9526C96.3575 10.396 96.6095 9.9126 96.9317 9.50244C97.2598 9.08643 97.6524 8.76709 98.1095 8.54443C98.5665 8.31592 99.0733 8.20166 99.63 8.20166C100.099 8.20166 100.521 8.26611 100.896 8.39502C101.276 8.52393 101.605 8.73193 101.88 9.01904C102.155 9.30029 102.363 9.66943 102.504 10.1265C102.65 10.5776 102.724 11.1284 102.724 11.7788V17.8872H100.597V11.7612C100.597 11.3042 100.529 10.9409 100.395 10.6714C100.266 10.4019 100.075 10.2085 99.8233 10.0913C99.5714 9.96826 99.2638 9.90674 98.9005 9.90674C98.5196 9.90674 98.1827 9.98291 97.8897 10.1353C97.6026 10.2876 97.3624 10.4956 97.169 10.7593C96.9757 11.0229 96.8292 11.3276 96.7296 11.6733C96.6358 12.019 96.589 12.3882 96.589 12.7808ZM105.184 13.2378V13.0356C105.184 12.3501 105.284 11.7144 105.483 11.1284C105.682 10.5366 105.969 10.0239 106.344 9.59033C106.725 9.15088 107.188 8.81104 107.733 8.5708C108.284 8.32471 108.905 8.20166 109.596 8.20166C110.293 8.20166 110.914 8.32471 111.459 8.5708C112.01 8.81104 112.476 9.15088 112.857 9.59033C113.238 10.0239 113.528 10.5366 113.727 11.1284C113.926 11.7144 114.026 12.3501 114.026 13.0356V13.2378C114.026 13.9233 113.926 14.5591 113.727 15.145C113.528 15.731 113.238 16.2437 112.857 16.6831C112.476 17.1167 112.013 17.4565 111.468 17.7026C110.923 17.9429 110.305 18.063 109.614 18.063C108.916 18.063 108.292 17.9429 107.742 17.7026C107.197 17.4565 106.734 17.1167 106.353 16.6831C105.972 16.2437 105.682 15.731 105.483 15.145C105.284 14.5591 105.184 13.9233 105.184 13.2378ZM107.302 13.0356V13.2378C107.302 13.6655 107.346 14.0698 107.434 14.4507C107.522 14.8315 107.66 15.1655 107.847 15.4526C108.035 15.7397 108.275 15.9653 108.568 16.1294C108.861 16.2935 109.209 16.3755 109.614 16.3755C110.006 16.3755 110.346 16.2935 110.633 16.1294C110.926 15.9653 111.166 15.7397 111.354 15.4526C111.541 15.1655 111.679 14.8315 111.767 14.4507C111.861 14.0698 111.908 13.6655 111.908 13.2378V13.0356C111.908 12.6138 111.861 12.2153 111.767 11.8403C111.679 11.4595 111.538 11.1226 111.345 10.8296C111.158 10.5366 110.917 10.3081 110.624 10.144C110.337 9.97412 109.994 9.88916 109.596 9.88916C109.198 9.88916 108.852 9.97412 108.559 10.144C108.272 10.3081 108.035 10.5366 107.847 10.8296C107.66 11.1226 107.522 11.4595 107.434 11.8403C107.346 12.2153 107.302 12.6138 107.302 13.0356ZM118.789 4.38721V17.8872H116.662V4.38721H118.789ZM124.097 8.37744V17.8872H121.97V8.37744H124.097ZM121.829 5.88135C121.829 5.55908 121.934 5.29248 122.145 5.08154C122.362 4.86475 122.661 4.75635 123.042 4.75635C123.417 4.75635 123.713 4.86475 123.93 5.08154C124.146 5.29248 124.255 5.55908 124.255 5.88135C124.255 6.19775 124.146 6.46143 123.93 6.67236C123.713 6.8833 123.417 6.98877 123.042 6.98877C122.661 6.98877 122.362 6.8833 122.145 6.67236C121.934 6.46143 121.829 6.19775 121.829 5.88135ZM132.938 15.9185V4.38721H135.065V17.8872H133.14L132.938 15.9185ZM126.75 13.2378V13.0532C126.75 12.3325 126.835 11.6763 127.005 11.0845C127.175 10.4868 127.421 9.97412 127.743 9.54639C128.066 9.11279 128.458 8.78174 128.921 8.55322C129.384 8.31885 129.905 8.20166 130.486 8.20166C131.06 8.20166 131.564 8.31299 131.997 8.53564C132.431 8.7583 132.8 9.07764 133.105 9.49365C133.409 9.90381 133.653 10.396 133.834 10.9702C134.016 11.5386 134.145 12.1714 134.221 12.8687V13.4575C134.145 14.1372 134.016 14.7583 133.834 15.3208C133.653 15.8833 133.409 16.3696 133.105 16.7798C132.8 17.1899 132.428 17.5063 131.988 17.729C131.555 17.9517 131.048 18.063 130.468 18.063C129.894 18.063 129.375 17.9429 128.912 17.7026C128.455 17.4624 128.066 17.1255 127.743 16.6919C127.421 16.2583 127.175 15.7485 127.005 15.1626C126.835 14.5708 126.75 13.9292 126.75 13.2378ZM128.868 13.0532V13.2378C128.868 13.6714 128.906 14.0757 128.983 14.4507C129.065 14.8257 129.191 15.1567 129.361 15.4438C129.53 15.7251 129.75 15.9478 130.02 16.1118C130.295 16.27 130.623 16.3491 131.004 16.3491C131.485 16.3491 131.88 16.2437 132.191 16.0327C132.501 15.8218 132.744 15.5376 132.92 15.1802C133.102 14.8169 133.225 14.4126 133.289 13.9673V12.3765C133.254 12.0308 133.181 11.7085 133.07 11.4097C132.964 11.1108 132.821 10.8501 132.639 10.6274C132.457 10.3989 132.232 10.2231 131.962 10.1001C131.698 9.97119 131.385 9.90674 131.022 9.90674C130.635 9.90674 130.307 9.98877 130.037 10.1528C129.768 10.3169 129.545 10.5425 129.369 10.8296C129.199 11.1167 129.073 11.4507 128.991 11.8315C128.909 12.2124 128.868 12.6196 128.868 13.0532ZM143.361 15.98V11.4448C143.361 11.105 143.299 10.812 143.176 10.5659C143.053 10.3198 142.866 10.1294 142.614 9.99463C142.368 9.85986 142.057 9.79248 141.682 9.79248C141.336 9.79248 141.038 9.85107 140.786 9.96826C140.534 10.0854 140.337 10.2437 140.197 10.4429C140.056 10.6421 139.986 10.8677 139.986 11.1196H137.876C137.876 10.7446 137.967 10.3813 138.149 10.0298C138.331 9.67822 138.594 9.36475 138.94 9.08936C139.286 8.81396 139.699 8.59717 140.179 8.43896C140.66 8.28076 141.199 8.20166 141.796 8.20166C142.511 8.20166 143.144 8.32178 143.695 8.56201C144.251 8.80225 144.688 9.16553 145.004 9.65186C145.327 10.1323 145.488 10.7358 145.488 11.4624V15.6899C145.488 16.1235 145.517 16.5132 145.576 16.8589C145.64 17.1987 145.731 17.4946 145.848 17.7466V17.8872H143.677C143.578 17.6587 143.499 17.3687 143.44 17.0171C143.387 16.6597 143.361 16.314 143.361 15.98ZM143.668 12.104L143.686 13.4136H142.166C141.773 13.4136 141.427 13.4517 141.128 13.5278C140.83 13.5981 140.581 13.7036 140.381 13.8442C140.182 13.9849 140.033 14.1548 139.933 14.354C139.833 14.5532 139.784 14.7788 139.784 15.0308C139.784 15.2827 139.842 15.5142 139.959 15.7251C140.077 15.9302 140.247 16.0913 140.469 16.2085C140.698 16.3257 140.973 16.3843 141.295 16.3843C141.729 16.3843 142.107 16.2964 142.429 16.1206C142.757 15.939 143.015 15.7192 143.203 15.4614C143.39 15.1978 143.49 14.9487 143.501 14.7144L144.187 15.6548C144.117 15.895 143.997 16.1528 143.827 16.4282C143.657 16.7036 143.434 16.9673 143.159 17.2192C142.889 17.4653 142.564 17.6675 142.183 17.8257C141.808 17.9839 141.374 18.063 140.882 18.063C140.261 18.063 139.708 17.9399 139.221 17.6938C138.735 17.4419 138.354 17.105 138.079 16.6831C137.803 16.2554 137.666 15.772 137.666 15.2329C137.666 14.729 137.759 14.2837 137.947 13.897C138.14 13.5044 138.421 13.1763 138.791 12.9126C139.166 12.6489 139.623 12.4497 140.162 12.3149C140.701 12.1743 141.316 12.104 142.007 12.104H143.668ZM151.042 16.8501L153.626 8.37744H155.893L152.079 19.3374C151.991 19.5718 151.877 19.8267 151.736 20.1021C151.595 20.3774 151.411 20.6382 151.182 20.8843C150.96 21.1362 150.681 21.3384 150.347 21.4907C150.013 21.6489 149.609 21.728 149.135 21.728C148.947 21.728 148.765 21.7104 148.59 21.6753C148.42 21.646 148.259 21.6138 148.106 21.5786L148.097 19.9614C148.156 19.9673 148.226 19.9731 148.308 19.979C148.396 19.9849 148.467 19.9878 148.519 19.9878C148.871 19.9878 149.164 19.9438 149.398 19.856C149.633 19.7739 149.823 19.6392 149.969 19.4517C150.122 19.2642 150.251 19.0122 150.356 18.6958L151.042 16.8501ZM149.583 8.37744L151.842 15.4966L152.219 17.729L150.752 18.1069L147.298 8.37744H149.583ZM163.161 15.312C163.161 15.1011 163.108 14.9106 163.003 14.7407C162.898 14.5649 162.695 14.4067 162.397 14.2661C162.104 14.1255 161.67 13.9966 161.096 13.8794C160.592 13.7681 160.129 13.6362 159.707 13.4839C159.291 13.3257 158.934 13.1353 158.635 12.9126C158.336 12.6899 158.105 12.4263 157.94 12.1216C157.776 11.8169 157.694 11.4653 157.694 11.0669C157.694 10.6802 157.779 10.314 157.949 9.96826C158.119 9.62256 158.362 9.31787 158.679 9.0542C158.995 8.79053 159.379 8.58252 159.83 8.43018C160.287 8.27783 160.797 8.20166 161.359 8.20166C162.156 8.20166 162.839 8.33643 163.407 8.60596C163.981 8.86963 164.421 9.22998 164.726 9.68701C165.03 10.1382 165.183 10.6479 165.183 11.2163H163.064C163.064 10.9644 163 10.73 162.871 10.5132C162.748 10.2905 162.561 10.1118 162.309 9.97705C162.057 9.83643 161.74 9.76611 161.359 9.76611C160.996 9.76611 160.694 9.82471 160.454 9.94189C160.22 10.0532 160.044 10.1997 159.927 10.3813C159.815 10.563 159.76 10.7622 159.76 10.979C159.76 11.1372 159.789 11.2808 159.848 11.4097C159.912 11.5327 160.018 11.647 160.164 11.7524C160.311 11.8521 160.51 11.9458 160.762 12.0337C161.02 12.1216 161.342 12.2065 161.729 12.2886C162.455 12.4409 163.079 12.6372 163.601 12.8774C164.128 13.1118 164.532 13.4165 164.814 13.7915C165.095 14.1606 165.235 14.6294 165.235 15.1978C165.235 15.6196 165.145 16.0063 164.963 16.3579C164.787 16.7036 164.529 17.0054 164.189 17.2632C163.85 17.5151 163.442 17.7114 162.968 17.8521C162.499 17.9927 161.972 18.063 161.386 18.063C160.524 18.063 159.795 17.9106 159.197 17.606C158.6 17.2954 158.146 16.8999 157.835 16.4194C157.53 15.9331 157.378 15.4292 157.378 14.9077H159.426C159.449 15.3003 159.558 15.6138 159.751 15.8481C159.95 16.0767 160.196 16.2437 160.489 16.3491C160.788 16.4487 161.096 16.4985 161.412 16.4985C161.793 16.4985 162.112 16.4487 162.37 16.3491C162.628 16.2437 162.824 16.103 162.959 15.9272C163.094 15.7456 163.161 15.5405 163.161 15.312Z" fill="#1262AE"/>
<path d="M180 12.8872H196" stroke="#1262AE" stroke-width="2" stroke-linecap="round" stroke-linejoin="round"/>
<path d="M189 5.88721L196 12.8872L189 19.8872" stroke="#1262AE" stroke-width="2" stroke-linecap="round" stroke-linejoin="round"/>
</svg>
