<svg width="66" height="92" viewBox="0 0 66 92" fill="none" xmlns="http://www.w3.org/2000/svg">
<rect width="65.387" height="65.387" rx="16" fill="#F9668D"/>
<path d="M31.5492 28.1561H33.8394V27.0217C33.8394 26.7208 33.9601 26.4323 34.1748 26.2196C34.3896 26.0068 34.6808 25.8873 34.9845 25.8873H38.4199C38.7236 25.8873 39.0148 26.0068 39.2296 26.2196C39.4443 26.4323 39.565 26.7208 39.565 27.0217V28.1561H44.1454V23.6186C44.1454 22.4151 43.6629 21.261 42.8039 20.4101C41.9449 19.5591 40.7798 19.0811 39.565 19.0811H25.8236C24.6088 19.0811 23.4438 19.5591 22.5847 20.4101C21.7257 21.261 21.2432 22.4151 21.2432 23.6186V28.1561H25.8236V27.0217C25.8236 26.7208 25.9443 26.4323 26.159 26.2196C26.3738 26.0068 26.665 25.8873 26.9687 25.8873H30.4041C30.7078 25.8873 30.999 26.0068 31.2138 26.2196C31.4285 26.4323 31.5492 26.7208 31.5492 27.0217V28.1561Z" fill="white"/>
<path d="M22.3884 30.4248C20.87 30.4248 19.4137 31.0224 18.34 32.0861C17.2663 33.1497 16.6631 34.5924 16.6631 36.0967V45.1717C16.6631 45.4726 16.7837 45.7611 16.9985 45.9738C17.2132 46.1866 17.5045 46.3061 17.8082 46.3061C18.1118 46.3061 18.4031 46.1866 18.6178 45.9738C18.8326 45.7611 18.9532 45.4726 18.9532 45.1717V39.4998H46.4348V45.1717C46.4348 45.4726 46.5554 45.7611 46.7702 45.9738C46.9849 46.1866 47.2762 46.3061 47.5798 46.3061C47.8835 46.3061 48.1748 46.1866 48.3895 45.9738C48.6043 45.7611 48.7249 45.4726 48.7249 45.1717V36.0967C48.7249 34.5924 48.1217 33.1497 47.048 32.0861C45.9743 31.0224 44.518 30.4248 42.9996 30.4248H22.3884Z" fill="white"/>
<path d="M22.627 87.3872H21.2134V82.458H15.8374V87.3872H14.4312V76.7231H15.8374V81.3081H21.2134V76.7231H22.627V87.3872ZM25.1532 83.3516C25.1532 82.5752 25.3046 81.877 25.6073 81.2568C25.9149 80.6367 26.3397 80.1582 26.8817 79.8213C27.4286 79.4844 28.0512 79.3159 28.7494 79.3159C29.8285 79.3159 30.7001 79.6895 31.3642 80.4365C32.0331 81.1836 32.3676 82.1772 32.3676 83.4175V83.5127C32.3676 84.2842 32.2187 84.9775 31.9208 85.5928C31.6278 86.2031 31.2055 86.6792 30.6537 87.021C30.1068 87.3628 29.477 87.5337 28.7641 87.5337C27.6898 87.5337 26.8183 87.1602 26.1493 86.4131C25.4853 85.666 25.1532 84.6772 25.1532 83.4468V83.3516ZM26.5155 83.5127C26.5155 84.3916 26.7182 85.0972 27.1234 85.6294C27.5336 86.1616 28.0805 86.4277 28.7641 86.4277C29.4525 86.4277 29.9994 86.1592 30.4047 85.6221C30.81 85.0801 31.0126 84.3232 31.0126 83.3516C31.0126 82.4824 30.8051 81.7793 30.39 81.2422C29.9799 80.7002 29.433 80.4292 28.7494 80.4292C28.0805 80.4292 27.5409 80.6953 27.1308 81.2275C26.7206 81.7598 26.5155 82.5215 26.5155 83.5127ZM36.5052 77.5435V79.4624H37.9847V80.5098H36.5052V85.4243C36.5052 85.7417 36.5711 85.981 36.7029 86.1421C36.8348 86.2983 37.0594 86.3765 37.3768 86.3765C37.533 86.3765 37.7479 86.3472 38.0213 86.2886V87.3872C37.6648 87.4849 37.3182 87.5337 36.9813 87.5337C36.3758 87.5337 35.9192 87.3506 35.6116 86.9844C35.304 86.6182 35.1502 86.0981 35.1502 85.4243V80.5098H33.7073V79.4624H35.1502V77.5435H36.5052ZM43.4626 87.5337C42.3884 87.5337 41.5144 87.1821 40.8405 86.479C40.1667 85.771 39.8298 84.8262 39.8298 83.6445V83.3955C39.8298 82.6094 39.9787 81.9087 40.2766 81.2935C40.5793 80.6733 40.9992 80.1899 41.5363 79.8433C42.0783 79.4917 42.6643 79.3159 43.2941 79.3159C44.3244 79.3159 45.1252 79.6553 45.6965 80.334C46.2678 81.0127 46.5534 81.9844 46.5534 83.249V83.813H41.1848C41.2043 84.5942 41.4313 85.2266 41.8659 85.71C42.3054 86.1885 42.862 86.4277 43.5358 86.4277C44.0144 86.4277 44.4196 86.3301 44.7517 86.1348C45.0837 85.9395 45.3742 85.6807 45.6232 85.3584L46.4509 86.0029C45.7868 87.0234 44.7907 87.5337 43.4626 87.5337ZM43.2941 80.4292C42.7473 80.4292 42.2883 80.6294 41.9172 81.0298C41.5461 81.4253 41.3166 81.9819 41.2287 82.6997H45.1984V82.5972C45.1594 81.9087 44.9738 81.3765 44.6418 81.0005C44.3098 80.6196 43.8605 80.4292 43.2941 80.4292ZM50.2003 87.3872H48.8453V76.1372H50.2003V87.3872Z" fill="#8E8E94"/>
</svg>
