<svg width="66" height="92" viewBox="0 0 66 92" fill="none" xmlns="http://www.w3.org/2000/svg">
<rect x="0.612793" width="65.387" height="65.387" rx="16" fill="#79CA00"/>
<path d="M43.7497 21.0537H22.8624C21.4225 21.0537 20.2515 22.2138 20.2515 23.6403V41.7462C20.2515 43.1727 21.4225 44.3327 22.8624 44.3327H43.7497C45.1896 44.3327 46.3606 43.1727 46.3606 41.7462V23.6403C46.3606 22.2138 45.1896 21.0537 43.7497 21.0537ZM43.751 28.8134C43.7497 28.8134 43.7497 28.8134 43.751 28.8134H43.1439L39.6623 23.6403H43.7497L43.751 28.8134ZM37.8751 36.5731L30.6951 40.4529V32.6932L37.8751 36.5731ZM36.6167 28.8134L33.135 23.6403H36.524L40.0056 28.8134H36.6167ZM33.4784 28.8134H30.0894L26.6077 23.6403H29.9967L33.4784 28.8134ZM22.8624 23.6403H23.4694L26.9511 28.8134H22.8624V23.6403Z" fill="white"/>
<path d="M10.793 76.7231L14.2793 85.4243L17.7656 76.7231H19.5894V87.3872H18.1831V83.2344L18.3149 78.752L14.814 87.3872H13.7373L10.2437 78.7739L10.3828 83.2344V87.3872H8.97656V76.7231H10.793ZM22.101 83.3516C22.101 82.5752 22.2523 81.877 22.5551 81.2568C22.8627 80.6367 23.2875 80.1582 23.8295 79.8213C24.3764 79.4844 24.9989 79.3159 25.6972 79.3159C26.7763 79.3159 27.6479 79.6895 28.3119 80.4365C28.9809 81.1836 29.3153 82.1772 29.3153 83.4175V83.5127C29.3153 84.2842 29.1664 84.9775 28.8686 85.5928C28.5756 86.2031 28.1532 86.6792 27.6015 87.021C27.0546 87.3628 26.4247 87.5337 25.7118 87.5337C24.6376 87.5337 23.766 87.1602 23.0971 86.4131C22.433 85.666 22.101 84.6772 22.101 83.4468V83.3516ZM23.4633 83.5127C23.4633 84.3916 23.6659 85.0972 24.0712 85.6294C24.4813 86.1616 25.0282 86.4277 25.7118 86.4277C26.4003 86.4277 26.9472 86.1592 27.3524 85.6221C27.7577 85.0801 27.9604 84.3232 27.9604 83.3516C27.9604 82.4824 27.7528 81.7793 27.3378 81.2422C26.9276 80.7002 26.3808 80.4292 25.6972 80.4292C25.0282 80.4292 24.4887 80.6953 24.0785 81.2275C23.6684 81.7598 23.4633 82.5215 23.4633 83.5127ZM34.1121 85.5488L36.075 79.4624H37.4593L34.6175 87.3872H33.5848L30.7137 79.4624H32.0979L34.1121 85.5488ZM40.8352 87.3872H39.4802V79.4624H40.8352V87.3872ZM39.3703 77.3604C39.3703 77.1406 39.4362 76.9551 39.5681 76.8037C39.7048 76.6523 39.905 76.5767 40.1687 76.5767C40.4323 76.5767 40.6325 76.6523 40.7692 76.8037C40.906 76.9551 40.9743 77.1406 40.9743 77.3604C40.9743 77.5801 40.906 77.7632 40.7692 77.9097C40.6325 78.0562 40.4323 78.1294 40.1687 78.1294C39.905 78.1294 39.7048 78.0562 39.5681 77.9097C39.4362 77.7632 39.3703 77.5801 39.3703 77.3604ZM46.899 87.5337C45.8248 87.5337 44.9508 87.1821 44.277 86.479C43.6031 85.771 43.2662 84.8262 43.2662 83.6445V83.3955C43.2662 82.6094 43.4151 81.9087 43.713 81.2935C44.0157 80.6733 44.4356 80.1899 44.9728 79.8433C45.5147 79.4917 46.1007 79.3159 46.7306 79.3159C47.7608 79.3159 48.5616 79.6553 49.1329 80.334C49.7042 81.0127 49.9898 81.9844 49.9898 83.249V83.813H44.6212C44.6407 84.5942 44.8678 85.2266 45.3023 85.71C45.7418 86.1885 46.2984 86.4277 46.9723 86.4277C47.4508 86.4277 47.8561 86.3301 48.1881 86.1348C48.5201 85.9395 48.8106 85.6807 49.0597 85.3584L49.8873 86.0029C49.2232 87.0234 48.2271 87.5337 46.899 87.5337ZM46.7306 80.4292C46.1837 80.4292 45.7247 80.6294 45.3536 81.0298C44.9825 81.4253 44.753 81.9819 44.6651 82.6997H48.6349V82.5972C48.5958 81.9087 48.4103 81.3765 48.0782 81.0005C47.7462 80.6196 47.297 80.4292 46.7306 80.4292ZM56.7788 85.2852C56.7788 84.9189 56.6396 84.6357 56.3613 84.4355C56.0879 84.2305 55.6069 84.0547 54.9185 83.9082C54.2349 83.7617 53.6904 83.5859 53.2852 83.3809C52.8848 83.1758 52.5869 82.9316 52.3916 82.6484C52.2012 82.3652 52.106 82.0283 52.106 81.6377C52.106 80.9883 52.3794 80.439 52.9263 79.9897C53.478 79.5405 54.1812 79.3159 55.0356 79.3159C55.9341 79.3159 56.6616 79.5479 57.2183 80.0117C57.7798 80.4756 58.0605 81.0688 58.0605 81.7915H56.6982C56.6982 81.4204 56.5396 81.1006 56.2222 80.832C55.9097 80.5635 55.5142 80.4292 55.0356 80.4292C54.5425 80.4292 54.1567 80.5366 53.8784 80.7515C53.6001 80.9663 53.4609 81.2471 53.4609 81.5938C53.4609 81.9209 53.5903 82.1675 53.8491 82.3335C54.1079 82.4995 54.5742 82.6582 55.248 82.8096C55.9268 82.9609 56.4761 83.1416 56.896 83.3516C57.3159 83.5615 57.626 83.8154 57.8262 84.1133C58.0312 84.4062 58.1338 84.7651 58.1338 85.1899C58.1338 85.8979 57.8506 86.4668 57.2842 86.8965C56.7178 87.3213 55.9829 87.5337 55.0796 87.5337C54.4448 87.5337 53.8833 87.4214 53.395 87.1968C52.9067 86.9722 52.5234 86.6597 52.2451 86.2593C51.9717 85.854 51.835 85.417 51.835 84.9482H53.1899C53.2144 85.4023 53.395 85.7637 53.7319 86.0322C54.0737 86.2959 54.5229 86.4277 55.0796 86.4277C55.5923 86.4277 56.0024 86.3252 56.3101 86.1201C56.6226 85.9102 56.7788 85.6318 56.7788 85.2852Z" fill="#8E8E94"/>
</svg>
