<svg width="71" height="92" viewBox="0 0 71 92" fill="none" xmlns="http://www.w3.org/2000/svg">
<rect x="0.845215" width="70" height="65.387" rx="16" fill="#4DABFF"/>
<path d="M46.7504 23.7646C46.4352 22.9042 45.5527 22.2917 44.5125 22.2917H40.5727V20.8333C40.5727 20.0312 39.8636 19.375 38.9968 19.375H32.6931C31.8263 19.375 31.1172 20.0312 31.1172 20.8333V22.2917H27.1774C26.1372 22.2917 25.2705 22.9042 24.9395 23.7646L21.835 32.0333C21.7247 32.3396 21.6616 32.6604 21.6616 32.9958V43.4375C21.6616 44.6479 22.7175 45.625 24.0255 45.625C25.3335 45.625 26.3894 44.6479 26.3894 43.4375V42.7083H45.3005V43.4375C45.3005 44.6333 46.3564 45.625 47.6644 45.625C48.9567 45.625 50.0283 44.6479 50.0283 43.4375V32.9958C50.0283 32.675 49.9652 32.3396 49.8549 32.0333L46.7504 23.7646ZM27.1774 38.3333C25.8693 38.3333 24.8135 37.3563 24.8135 36.1458C24.8135 34.9354 25.8693 33.9583 27.1774 33.9583C28.4854 33.9583 29.5412 34.9354 29.5412 36.1458C29.5412 37.3563 28.4854 38.3333 27.1774 38.3333ZM44.5125 38.3333C43.2045 38.3333 42.1487 37.3563 42.1487 36.1458C42.1487 34.9354 43.2045 33.9583 44.5125 33.9583C45.8206 33.9583 46.8764 34.9354 46.8764 36.1458C46.8764 37.3563 45.8206 38.3333 44.5125 38.3333ZM24.8135 31.0417L27.1774 24.4792H44.5125L46.8764 31.0417H24.8135Z" fill="white"/>
<path d="M29.8697 77.8804H26.4419V87.3872H25.043V77.8804H21.6226V76.7231H29.8697V77.8804ZM35.8969 87.3872C35.8188 87.231 35.7553 86.9526 35.7065 86.5522C35.0766 87.2065 34.3246 87.5337 33.4506 87.5337C32.6694 87.5337 32.0273 87.314 31.5243 86.8745C31.0263 86.4302 30.7773 85.8687 30.7773 85.1899C30.7773 84.3647 31.0898 83.7251 31.7148 83.271C32.3447 82.812 33.2284 82.5825 34.3661 82.5825H35.6845V81.96C35.6845 81.4863 35.5429 81.1104 35.2597 80.832C34.9765 80.5488 34.559 80.4072 34.0073 80.4072C33.5239 80.4072 33.1186 80.5293 32.7914 80.7734C32.4643 81.0176 32.3007 81.313 32.3007 81.6597H30.9384C30.9384 81.2642 31.0776 80.8833 31.3559 80.5171C31.6391 80.146 32.0199 79.853 32.4985 79.6382C32.9819 79.4233 33.5116 79.3159 34.0878 79.3159C35.0009 79.3159 35.7162 79.5454 36.2338 80.0044C36.7514 80.4585 37.0199 81.0859 37.0395 81.8867V85.5342C37.0395 86.2617 37.1323 86.8403 37.3178 87.27V87.3872H35.8969ZM33.6484 86.3545C34.0732 86.3545 34.476 86.2446 34.8569 86.0249C35.2377 85.8052 35.5136 85.5195 35.6845 85.168V83.542H34.6225C32.9623 83.542 32.1323 84.0278 32.1323 84.9995C32.1323 85.4243 32.2739 85.7563 32.5571 85.9956C32.8403 86.2349 33.204 86.3545 33.6484 86.3545ZM42.4222 82.3555L44.18 79.4624H45.762L43.1693 83.3809L45.8426 87.3872H44.2752L42.4442 84.4209L40.6131 87.3872H39.0384L41.7117 83.3809L39.119 79.4624H40.6864L42.4222 82.3555ZM49.2771 87.3872H47.9221V79.4624H49.2771V87.3872ZM47.8122 77.3604C47.8122 77.1406 47.8781 76.9551 48.01 76.8037C48.1467 76.6523 48.3469 76.5767 48.6106 76.5767C48.8742 76.5767 49.0744 76.6523 49.2112 76.8037C49.3479 76.9551 49.4162 77.1406 49.4162 77.3604C49.4162 77.5801 49.3479 77.7632 49.2112 77.9097C49.0744 78.0562 48.8742 78.1294 48.6106 78.1294C48.3469 78.1294 48.1467 78.0562 48.01 77.9097C47.8781 77.7632 47.8122 77.5801 47.8122 77.3604Z" fill="#8E8E94"/>
</svg>
