<svg width="170" height="18" viewBox="0 0 175 25" fill="none" xmlns="http://www.w3.org/2000/svg">
<rect x="0.34082" y="0.886719" width="174.659" height="24" rx="12" fill="white"/>
<path d="M27.3579 15.5488L30.7241 5.08984H33.1587L28.5708 17.8867H26.9273L27.3579 15.5488ZM24.2466 5.08984L27.5864 15.5488L28.0435 17.8867H26.3911L21.8208 5.08984H24.2466ZM37.368 8.37695V17.8867H35.241V8.37695H37.368ZM35.1004 5.88086C35.1004 5.55859 35.2059 5.29199 35.4168 5.08105C35.6336 4.86426 35.9324 4.75586 36.3133 4.75586C36.6883 4.75586 36.9842 4.86426 37.201 5.08105C37.4178 5.29199 37.5262 5.55859 37.5262 5.88086C37.5262 6.19727 37.4178 6.46094 37.201 6.67188C36.9842 6.88281 36.6883 6.98828 36.3133 6.98828C35.9324 6.98828 35.6336 6.88281 35.4168 6.67188C35.2059 6.46094 35.1004 6.19727 35.1004 5.88086ZM44.6007 18.0625C43.8975 18.0625 43.2618 17.9482 42.6934 17.7197C42.1309 17.4854 41.6505 17.1602 41.252 16.7441C40.8595 16.3281 40.5577 15.8389 40.3468 15.2764C40.1358 14.7139 40.0303 14.1074 40.0303 13.457V13.1055C40.0303 12.3613 40.1387 11.6875 40.3555 11.084C40.5723 10.4805 40.8741 9.96484 41.2608 9.53711C41.6475 9.10352 42.1046 8.77246 42.6319 8.54395C43.1593 8.31543 43.7305 8.20117 44.3458 8.20117C45.0255 8.20117 45.6202 8.31543 46.13 8.54395C46.6397 8.77246 47.0616 9.09473 47.3956 9.51074C47.7354 9.9209 47.9874 10.4102 48.1514 10.9785C48.3214 11.5469 48.4063 12.1738 48.4063 12.8594V13.7646H41.0587V12.2441H46.3145V12.0771C46.3028 11.6963 46.2266 11.3389 46.086 11.0049C45.9512 10.6709 45.7432 10.4014 45.462 10.1963C45.1807 9.99121 44.8057 9.88867 44.337 9.88867C43.9854 9.88867 43.672 9.96484 43.3966 10.1172C43.127 10.2637 42.9014 10.4775 42.7198 10.7588C42.5382 11.04 42.3975 11.3799 42.2979 11.7783C42.2042 12.1709 42.1573 12.6133 42.1573 13.1055V13.457C42.1573 13.873 42.213 14.2598 42.3243 14.6172C42.4415 14.9688 42.6114 15.2764 42.8341 15.54C43.0567 15.8037 43.3262 16.0117 43.6427 16.1641C43.9591 16.3105 44.3194 16.3838 44.7237 16.3838C45.2335 16.3838 45.6876 16.2812 46.086 16.0762C46.4845 15.8711 46.8302 15.5811 47.1231 15.2061L48.2393 16.2871C48.0343 16.5859 47.7677 16.873 47.4395 17.1484C47.1114 17.418 46.71 17.6377 46.2354 17.8076C45.7667 17.9775 45.2218 18.0625 44.6007 18.0625ZM53.3627 15.7773L55.5599 8.37695H56.9134L56.5443 10.5918L54.3294 17.8867H53.1166L53.3627 15.7773ZM52.0707 8.37695L53.7845 15.8125L53.9252 17.8867H52.5716L49.9964 8.37695H52.0707ZM58.9701 15.7246L60.6312 8.37695H62.6966L60.1302 17.8867H58.7767L58.9701 15.7246ZM57.1419 8.37695L59.3128 15.6895L59.5853 17.8867H58.3724L56.1312 10.583L55.7621 8.37695H57.1419ZM75.4218 15.9795V11.4443C75.4218 11.1045 75.3603 10.8115 75.2372 10.5654C75.1142 10.3193 74.9267 10.1289 74.6747 9.99414C74.4286 9.85938 74.1181 9.79199 73.7431 9.79199C73.3974 9.79199 73.0985 9.85059 72.8466 9.96777C72.5946 10.085 72.3984 10.2432 72.2577 10.4424C72.1171 10.6416 72.0468 10.8672 72.0468 11.1191H69.9374C69.9374 10.7441 70.0282 10.3809 70.2099 10.0293C70.3915 9.67773 70.6552 9.36426 71.0009 9.08887C71.3466 8.81348 71.7597 8.59668 72.2402 8.43848C72.7206 8.28027 73.2597 8.20117 73.8573 8.20117C74.5722 8.20117 75.205 8.32129 75.7558 8.56152C76.3124 8.80176 76.7489 9.16504 77.0653 9.65137C77.3876 10.1318 77.5487 10.7354 77.5487 11.4619V15.6895C77.5487 16.123 77.578 16.5127 77.6366 16.8584C77.7011 17.1982 77.7919 17.4941 77.9091 17.7461V17.8867H75.7382C75.6386 17.6582 75.5595 17.3682 75.5009 17.0166C75.4482 16.6592 75.4218 16.3135 75.4218 15.9795ZM75.7294 12.1035L75.747 13.4131H74.2265C73.8339 13.4131 73.4882 13.4512 73.1894 13.5273C72.8905 13.5977 72.6415 13.7031 72.4423 13.8438C72.2431 13.9844 72.0937 14.1543 71.9941 14.3535C71.8944 14.5527 71.8446 14.7783 71.8446 15.0303C71.8446 15.2822 71.9032 15.5137 72.0204 15.7246C72.1376 15.9297 72.3075 16.0908 72.5302 16.208C72.7587 16.3252 73.0341 16.3838 73.3564 16.3838C73.79 16.3838 74.1679 16.2959 74.4902 16.1201C74.8183 15.9385 75.0761 15.7188 75.2636 15.4609C75.4511 15.1973 75.5507 14.9482 75.5624 14.7139L76.248 15.6543C76.1777 15.8945 76.0575 16.1523 75.8876 16.4277C75.7177 16.7031 75.495 16.9668 75.2196 17.2188C74.9501 17.4648 74.6249 17.667 74.2441 17.8252C73.8691 17.9834 73.4355 18.0625 72.9433 18.0625C72.3222 18.0625 71.7685 17.9395 71.2821 17.6934C70.7958 17.4414 70.415 17.1045 70.1396 16.6826C69.8642 16.2549 69.7265 15.7715 69.7265 15.2324C69.7265 14.7285 69.8202 14.2832 70.0077 13.8965C70.2011 13.5039 70.4823 13.1758 70.8515 12.9121C71.2265 12.6484 71.6835 12.4492 72.2226 12.3145C72.7616 12.1738 73.3769 12.1035 74.0683 12.1035H75.7294ZM82.7512 4.38672V17.8867H80.6242V4.38672H82.7512ZM88.0591 4.38672V17.8867H85.9321V4.38672H88.0591ZM101.637 15.3115C101.637 15.1006 101.584 14.9102 101.479 14.7402C101.373 14.5645 101.171 14.4062 100.872 14.2656C100.579 14.125 100.146 13.9961 99.5713 13.8789C99.0674 13.7676 98.6045 13.6357 98.1827 13.4834C97.7666 13.3252 97.4092 13.1348 97.1104 12.9121C96.8116 12.6895 96.5801 12.4258 96.4161 12.1211C96.252 11.8164 96.17 11.4648 96.17 11.0664C96.17 10.6797 96.2549 10.3135 96.4248 9.96777C96.5948 9.62207 96.8379 9.31738 97.1543 9.05371C97.4707 8.79004 97.8545 8.58203 98.3057 8.42969C98.7627 8.27734 99.2725 8.20117 99.835 8.20117C100.632 8.20117 101.314 8.33594 101.883 8.60547C102.457 8.86914 102.897 9.22949 103.201 9.68652C103.506 10.1377 103.658 10.6475 103.658 11.2158H101.54C101.54 10.9639 101.476 10.7295 101.347 10.5127C101.224 10.29 101.036 10.1113 100.784 9.97656C100.532 9.83594 100.216 9.76562 99.835 9.76562C99.4717 9.76562 99.17 9.82422 98.9297 9.94141C98.6954 10.0527 98.5196 10.1992 98.4024 10.3809C98.2911 10.5625 98.2354 10.7617 98.2354 10.9785C98.2354 11.1367 98.2647 11.2803 98.3233 11.4092C98.3877 11.5322 98.4932 11.6465 98.6397 11.752C98.7862 11.8516 98.9854 11.9453 99.2373 12.0332C99.4952 12.1211 99.8174 12.2061 100.204 12.2881C100.931 12.4404 101.555 12.6367 102.076 12.877C102.604 13.1113 103.008 13.416 103.289 13.791C103.57 14.1602 103.711 14.6289 103.711 15.1973C103.711 15.6191 103.62 16.0059 103.439 16.3574C103.263 16.7031 103.005 17.0049 102.665 17.2627C102.325 17.5146 101.918 17.7109 101.443 17.8516C100.975 17.9922 100.447 18.0625 99.8614 18.0625C99 18.0625 98.2705 17.9102 97.6729 17.6055C97.0752 17.2949 96.6211 16.8994 96.3106 16.4189C96.0059 15.9326 95.8536 15.4287 95.8536 14.9072H97.9014C97.9248 15.2998 98.0332 15.6133 98.2266 15.8477C98.4258 16.0762 98.6719 16.2432 98.9649 16.3486C99.2637 16.4482 99.5713 16.498 99.8877 16.498C100.269 16.498 100.588 16.4482 100.846 16.3486C101.104 16.2432 101.3 16.1025 101.435 15.9268C101.569 15.7451 101.637 15.54 101.637 15.3115ZM110.645 8.37695V9.92383H105.284V8.37695H110.645ZM106.83 6.04785H108.949V15.2588C108.949 15.5518 108.99 15.7773 109.072 15.9355C109.159 16.0879 109.28 16.1904 109.432 16.2432C109.584 16.2959 109.763 16.3223 109.968 16.3223C110.115 16.3223 110.255 16.3135 110.39 16.2959C110.525 16.2783 110.633 16.2607 110.715 16.2432L110.724 17.8604C110.548 17.9131 110.343 17.96 110.109 18.001C109.88 18.042 109.617 18.0625 109.318 18.0625C108.831 18.0625 108.401 17.9775 108.026 17.8076C107.651 17.6318 107.358 17.3477 107.147 16.9551C106.936 16.5625 106.83 16.041 106.83 15.3906V6.04785ZM118.361 15.9795V11.4443C118.361 11.1045 118.299 10.8115 118.176 10.5654C118.053 10.3193 117.866 10.1289 117.614 9.99414C117.368 9.85938 117.057 9.79199 116.682 9.79199C116.337 9.79199 116.038 9.85059 115.786 9.96777C115.534 10.085 115.337 10.2432 115.197 10.4424C115.056 10.6416 114.986 10.8672 114.986 11.1191H112.877C112.877 10.7441 112.967 10.3809 113.149 10.0293C113.331 9.67773 113.594 9.36426 113.94 9.08887C114.286 8.81348 114.699 8.59668 115.179 8.43848C115.66 8.28027 116.199 8.20117 116.796 8.20117C117.511 8.20117 118.144 8.32129 118.695 8.56152C119.252 8.80176 119.688 9.16504 120.004 9.65137C120.327 10.1318 120.488 10.7354 120.488 11.4619V15.6895C120.488 16.123 120.517 16.5127 120.576 16.8584C120.64 17.1982 120.731 17.4941 120.848 17.7461V17.8867H118.677C118.578 17.6582 118.499 17.3682 118.44 17.0166C118.387 16.6592 118.361 16.3135 118.361 15.9795ZM118.669 12.1035L118.686 13.4131H117.166C116.773 13.4131 116.427 13.4512 116.129 13.5273C115.83 13.5977 115.581 13.7031 115.381 13.8438C115.182 13.9844 115.033 14.1543 114.933 14.3535C114.834 14.5527 114.784 14.7783 114.784 15.0303C114.784 15.2822 114.842 15.5137 114.96 15.7246C115.077 15.9297 115.247 16.0908 115.469 16.208C115.698 16.3252 115.973 16.3838 116.296 16.3838C116.729 16.3838 117.107 16.2959 117.429 16.1201C117.757 15.9385 118.015 15.7188 118.203 15.4609C118.39 15.1973 118.49 14.9482 118.502 14.7139L119.187 15.6543C119.117 15.8945 118.997 16.1523 118.827 16.4277C118.657 16.7031 118.434 16.9668 118.159 17.2188C117.889 17.4648 117.564 17.667 117.183 17.8252C116.808 17.9834 116.375 18.0625 115.882 18.0625C115.261 18.0625 114.708 17.9395 114.221 17.6934C113.735 17.4414 113.354 17.1045 113.079 16.6826C112.803 16.2549 112.666 15.7715 112.666 15.2324C112.666 14.7285 112.759 14.2832 112.947 13.8965C113.14 13.5039 113.421 13.1758 113.791 12.9121C114.166 12.6484 114.623 12.4492 115.162 12.3145C115.701 12.1738 116.316 12.1035 117.007 12.1035H118.669ZM126.042 16.8496L128.626 8.37695H130.893L127.079 19.3369C126.991 19.5713 126.877 19.8262 126.736 20.1016C126.596 20.377 126.411 20.6377 126.182 20.8838C125.96 21.1357 125.682 21.3379 125.348 21.4902C125.014 21.6484 124.609 21.7275 124.135 21.7275C123.947 21.7275 123.766 21.71 123.59 21.6748C123.42 21.6455 123.259 21.6133 123.106 21.5781L123.098 19.9609C123.156 19.9668 123.226 19.9727 123.308 19.9785C123.396 19.9844 123.467 19.9873 123.519 19.9873C123.871 19.9873 124.164 19.9434 124.398 19.8555C124.633 19.7734 124.823 19.6387 124.97 19.4512C125.122 19.2637 125.251 19.0117 125.356 18.6953L126.042 16.8496ZM124.583 8.37695L126.842 15.4961L127.22 17.7285L125.752 18.1064L122.298 8.37695H124.583ZM138.161 15.3115C138.161 15.1006 138.109 14.9102 138.003 14.7402C137.898 14.5645 137.695 14.4062 137.397 14.2656C137.104 14.125 136.67 13.9961 136.096 13.8789C135.592 13.7676 135.129 13.6357 134.707 13.4834C134.291 13.3252 133.934 13.1348 133.635 12.9121C133.336 12.6895 133.105 12.4258 132.941 12.1211C132.777 11.8164 132.694 11.4648 132.694 11.0664C132.694 10.6797 132.779 10.3135 132.949 9.96777C133.119 9.62207 133.362 9.31738 133.679 9.05371C133.995 8.79004 134.379 8.58203 134.83 8.42969C135.287 8.27734 135.797 8.20117 136.36 8.20117C137.156 8.20117 137.839 8.33594 138.407 8.60547C138.982 8.86914 139.421 9.22949 139.726 9.68652C140.03 10.1377 140.183 10.6475 140.183 11.2158H138.065C138.065 10.9639 138 10.7295 137.871 10.5127C137.748 10.29 137.561 10.1113 137.309 9.97656C137.057 9.83594 136.74 9.76562 136.36 9.76562C135.996 9.76562 135.694 9.82422 135.454 9.94141C135.22 10.0527 135.044 10.1992 134.927 10.3809C134.816 10.5625 134.76 10.7617 134.76 10.9785C134.76 11.1367 134.789 11.2803 134.848 11.4092C134.912 11.5322 135.018 11.6465 135.164 11.752C135.311 11.8516 135.51 11.9453 135.762 12.0332C136.02 12.1211 136.342 12.2061 136.729 12.2881C137.455 12.4404 138.079 12.6367 138.601 12.877C139.128 13.1113 139.532 13.416 139.814 13.791C140.095 14.1602 140.236 14.6289 140.236 15.1973C140.236 15.6191 140.145 16.0059 139.963 16.3574C139.787 16.7031 139.529 17.0049 139.19 17.2627C138.85 17.5146 138.443 17.7109 137.968 17.8516C137.499 17.9922 136.972 18.0625 136.386 18.0625C135.525 18.0625 134.795 17.9102 134.197 17.6055C133.6 17.2949 133.146 16.8994 132.835 16.4189C132.53 15.9326 132.378 15.4287 132.378 14.9072H134.426C134.449 15.2998 134.558 15.6133 134.751 15.8477C134.95 16.0762 135.196 16.2432 135.489 16.3486C135.788 16.4482 136.096 16.498 136.412 16.498C136.793 16.498 137.112 16.4482 137.37 16.3486C137.628 16.2432 137.824 16.1025 137.959 15.9268C138.094 15.7451 138.161 15.54 138.161 15.3115Z" fill="#1262AE"/>
<path d="M155 12.8867H171" stroke="#1262AE" stroke-width="2" stroke-linecap="round" stroke-linejoin="round"/>
<path d="M164 5.88672L171 12.8867L164 19.8867" stroke="#1262AE" stroke-width="2" stroke-linecap="round" stroke-linejoin="round"/>
</svg>
