<svg width="170" height="18" viewBox="0 0 232 25" fill="none" xmlns="http://www.w3.org/2000/svg">
<rect x="0.619141" y="0.387207" width="231.381" height="24" rx="12" fill="white"/>
<path d="M22.7333 15.0493L26.0995 4.59033H28.5341L23.9462 17.3872H22.3027L22.7333 15.0493ZM19.622 4.59033L22.9618 15.0493L23.4189 17.3872H21.7665L17.1962 4.59033H19.622ZM32.7434 7.87744V17.3872H30.6164V7.87744H32.7434ZM30.4758 5.38135C30.4758 5.05908 30.5813 4.79248 30.7922 4.58154C31.009 4.36475 31.3078 4.25635 31.6887 4.25635C32.0637 4.25635 32.3596 4.36475 32.5764 4.58154C32.7932 4.79248 32.9016 5.05908 32.9016 5.38135C32.9016 5.69775 32.7932 5.96143 32.5764 6.17236C32.3596 6.3833 32.0637 6.48877 31.6887 6.48877C31.3078 6.48877 31.009 6.3833 30.7922 6.17236C30.5813 5.96143 30.4758 5.69775 30.4758 5.38135ZM39.9761 17.563C39.2729 17.563 38.6372 17.4487 38.0688 17.2202C37.5063 16.9858 37.0259 16.6606 36.6274 16.2446C36.2348 15.8286 35.9331 15.3394 35.7222 14.7769C35.5112 14.2144 35.4057 13.6079 35.4057 12.9575V12.606C35.4057 11.8618 35.5141 11.188 35.7309 10.5845C35.9477 9.98096 36.2495 9.46533 36.6362 9.0376C37.0229 8.604 37.48 8.27295 38.0073 8.04443C38.5347 7.81592 39.1059 7.70166 39.7212 7.70166C40.4009 7.70166 40.9956 7.81592 41.5054 8.04443C42.0151 8.27295 42.437 8.59521 42.771 9.01123C43.1108 9.42139 43.3628 9.91064 43.5268 10.479C43.6968 11.0474 43.7817 11.6743 43.7817 12.3599V13.2651H36.4341V11.7446H41.6899V11.5776C41.6782 11.1968 41.602 10.8394 41.4614 10.5054C41.3266 10.1714 41.1186 9.90186 40.8374 9.69678C40.5561 9.4917 40.1811 9.38916 39.7124 9.38916C39.3608 9.38916 39.0473 9.46533 38.772 9.61768C38.5024 9.76416 38.2768 9.97803 38.0952 10.2593C37.9136 10.5405 37.7729 10.8804 37.6733 11.2788C37.5796 11.6714 37.5327 12.1138 37.5327 12.606V12.9575C37.5327 13.3735 37.5884 13.7603 37.6997 14.1177C37.8169 14.4692 37.9868 14.7769 38.2095 15.0405C38.4321 15.3042 38.7016 15.5122 39.0181 15.6646C39.3345 15.811 39.6948 15.8843 40.0991 15.8843C40.6089 15.8843 41.063 15.7817 41.4614 15.5767C41.8598 15.3716 42.2056 15.0815 42.4985 14.7065L43.6147 15.7876C43.4097 16.0864 43.1431 16.3735 42.8149 16.6489C42.4868 16.9185 42.0854 17.1382 41.6108 17.3081C41.1421 17.478 40.5972 17.563 39.9761 17.563ZM48.738 15.2778L50.9353 7.87744H52.2888L51.9197 10.0923L49.7048 17.3872H48.492L48.738 15.2778ZM47.4461 7.87744L49.1599 15.313L49.3005 17.3872H47.947L45.3718 7.87744H47.4461ZM54.3455 15.2251L56.0066 7.87744H58.072L55.5056 17.3872H54.1521L54.3455 15.2251ZM52.5173 7.87744L54.6882 15.1899L54.9607 17.3872H53.7478L51.5066 10.0835L51.1375 7.87744H52.5173ZM70.7972 15.48V10.9448C70.7972 10.605 70.7357 10.312 70.6126 10.0659C70.4896 9.81982 70.3021 9.62939 70.0501 9.49463C69.804 9.35986 69.4935 9.29248 69.1185 9.29248C68.7728 9.29248 68.4739 9.35107 68.222 9.46826C67.97 9.58545 67.7738 9.74365 67.6331 9.94287C67.4925 10.1421 67.4222 10.3677 67.4222 10.6196H65.3128C65.3128 10.2446 65.4036 9.88135 65.5853 9.52979C65.7669 9.17822 66.0306 8.86475 66.3763 8.58936C66.722 8.31396 67.1351 8.09717 67.6155 7.93896C68.096 7.78076 68.6351 7.70166 69.2327 7.70166C69.9476 7.70166 70.5804 7.82178 71.1312 8.06201C71.6878 8.30225 72.1243 8.66553 72.4407 9.15186C72.763 9.63232 72.9241 10.2358 72.9241 10.9624V15.1899C72.9241 15.6235 72.9534 16.0132 73.012 16.3589C73.0765 16.6987 73.1673 16.9946 73.2845 17.2466V17.3872H71.1136C71.014 17.1587 70.9349 16.8687 70.8763 16.5171C70.8236 16.1597 70.7972 15.814 70.7972 15.48ZM71.1048 11.604L71.1224 12.9136H69.6019C69.2093 12.9136 68.8636 12.9517 68.5648 13.0278C68.2659 13.0981 68.0169 13.2036 67.8177 13.3442C67.6185 13.4849 67.4691 13.6548 67.3695 13.854C67.2698 14.0532 67.22 14.2788 67.22 14.5308C67.22 14.7827 67.2786 15.0142 67.3958 15.2251C67.513 15.4302 67.6829 15.5913 67.9056 15.7085C68.1341 15.8257 68.4095 15.8843 68.7318 15.8843C69.1654 15.8843 69.5433 15.7964 69.8655 15.6206C70.1937 15.439 70.4515 15.2192 70.639 14.9614C70.8265 14.6978 70.9261 14.4487 70.9378 14.2144L71.6234 15.1548C71.553 15.395 71.4329 15.6528 71.263 15.9282C71.0931 16.2036 70.8704 16.4673 70.595 16.7192C70.3255 16.9653 70.0003 17.1675 69.6195 17.3257C69.2445 17.4839 68.8109 17.563 68.3187 17.563C67.6976 17.563 67.1439 17.4399 66.6575 17.1938C66.1712 16.9419 65.7904 16.605 65.515 16.1831C65.2396 15.7554 65.1019 15.272 65.1019 14.7329C65.1019 14.229 65.1956 13.7837 65.3831 13.397C65.5765 13.0044 65.8577 12.6763 66.2269 12.4126C66.6019 12.1489 67.0589 11.9497 67.598 11.8149C68.137 11.6743 68.7523 11.604 69.4437 11.604H71.1048ZM78.1266 3.88721V17.3872H75.9996V3.88721H78.1266ZM83.4345 3.88721V17.3872H81.3075V3.88721H83.4345ZM97.478 15.4185V3.88721H99.6049V17.3872H97.6801L97.478 15.4185ZM91.2905 12.7378V12.5532C91.2905 11.8325 91.3754 11.1763 91.5454 10.5845C91.7153 9.98682 91.9614 9.47412 92.2836 9.04639C92.6059 8.61279 92.9985 8.28174 93.4614 8.05322C93.9243 7.81885 94.4457 7.70166 95.0258 7.70166C95.6 7.70166 96.104 7.81299 96.5375 8.03564C96.9711 8.2583 97.3403 8.57764 97.645 8.99365C97.9497 9.40381 98.1928 9.896 98.3745 10.4702C98.5561 11.0386 98.685 11.6714 98.7612 12.3687V12.9575C98.685 13.6372 98.5561 14.2583 98.3745 14.8208C98.1928 15.3833 97.9497 15.8696 97.645 16.2798C97.3403 16.6899 96.9682 17.0063 96.5288 17.229C96.0952 17.4517 95.5883 17.563 95.0082 17.563C94.434 17.563 93.9155 17.4429 93.4526 17.2026C92.9956 16.9624 92.6059 16.6255 92.2836 16.1919C91.9614 15.7583 91.7153 15.2485 91.5454 14.6626C91.3754 14.0708 91.2905 13.4292 91.2905 12.7378ZM93.4086 12.5532V12.7378C93.4086 13.1714 93.4467 13.5757 93.5229 13.9507C93.6049 14.3257 93.7309 14.6567 93.9008 14.9438C94.0707 15.2251 94.2905 15.4478 94.56 15.6118C94.8354 15.77 95.1635 15.8491 95.5444 15.8491C96.0248 15.8491 96.4204 15.7437 96.7309 15.5327C97.0415 15.3218 97.2846 15.0376 97.4604 14.6802C97.642 14.3169 97.7651 13.9126 97.8295 13.4673V11.8765C97.7944 11.5308 97.7211 11.2085 97.6098 10.9097C97.5043 10.6108 97.3608 10.3501 97.1791 10.1274C96.9975 9.89893 96.7719 9.72314 96.5024 9.6001C96.2387 9.47119 95.9252 9.40674 95.562 9.40674C95.1752 9.40674 94.8471 9.48877 94.5776 9.65283C94.3081 9.81689 94.0854 10.0425 93.9096 10.3296C93.7397 10.6167 93.6137 10.9507 93.5317 11.3315C93.4497 11.7124 93.4086 12.1196 93.4086 12.5532ZM106.732 17.563C106.029 17.563 105.393 17.4487 104.825 17.2202C104.262 16.9858 103.782 16.6606 103.384 16.2446C102.991 15.8286 102.689 15.3394 102.478 14.7769C102.267 14.2144 102.162 13.6079 102.162 12.9575V12.606C102.162 11.8618 102.27 11.188 102.487 10.5845C102.704 9.98096 103.006 9.46533 103.392 9.0376C103.779 8.604 104.236 8.27295 104.763 8.04443C105.291 7.81592 105.862 7.70166 106.477 7.70166C107.157 7.70166 107.752 7.81592 108.261 8.04443C108.771 8.27295 109.193 8.59521 109.527 9.01123C109.867 9.42139 110.119 9.91064 110.283 10.479C110.453 11.0474 110.538 11.6743 110.538 12.3599V13.2651H103.19V11.7446H108.446V11.5776C108.434 11.1968 108.358 10.8394 108.217 10.5054C108.083 10.1714 107.875 9.90186 107.593 9.69678C107.312 9.4917 106.937 9.38916 106.468 9.38916C106.117 9.38916 105.803 9.46533 105.528 9.61768C105.259 9.76416 105.033 9.97803 104.851 10.2593C104.67 10.5405 104.529 10.8804 104.429 11.2788C104.336 11.6714 104.289 12.1138 104.289 12.606V12.9575C104.289 13.3735 104.344 13.7603 104.456 14.1177C104.573 14.4692 104.743 14.7769 104.966 15.0405C105.188 15.3042 105.458 15.5122 105.774 15.6646C106.091 15.811 106.451 15.8843 106.855 15.8843C107.365 15.8843 107.819 15.7817 108.217 15.5767C108.616 15.3716 108.962 15.0815 109.255 14.7065L110.371 15.7876C110.166 16.0864 109.899 16.3735 109.571 16.6489C109.243 16.9185 108.842 17.1382 108.367 17.3081C107.898 17.478 107.353 17.563 106.732 17.563ZM118.245 14.812C118.245 14.6011 118.192 14.4106 118.087 14.2407C117.981 14.0649 117.779 13.9067 117.48 13.7661C117.188 13.6255 116.754 13.4966 116.18 13.3794C115.676 13.2681 115.213 13.1362 114.791 12.9839C114.375 12.8257 114.018 12.6353 113.719 12.4126C113.42 12.1899 113.188 11.9263 113.024 11.6216C112.86 11.3169 112.778 10.9653 112.778 10.5669C112.778 10.1802 112.863 9.81396 113.033 9.46826C113.203 9.12256 113.446 8.81787 113.763 8.5542C114.079 8.29053 114.463 8.08252 114.914 7.93018C115.371 7.77783 115.881 7.70166 116.443 7.70166C117.24 7.70166 117.923 7.83643 118.491 8.10596C119.065 8.36963 119.505 8.72998 119.81 9.18701C120.114 9.63818 120.267 10.1479 120.267 10.7163H118.148C118.148 10.4644 118.084 10.23 117.955 10.0132C117.832 9.79053 117.645 9.61182 117.393 9.47705C117.141 9.33643 116.824 9.26611 116.443 9.26611C116.08 9.26611 115.778 9.32471 115.538 9.44189C115.304 9.55322 115.128 9.69971 115.011 9.88135C114.899 10.063 114.844 10.2622 114.844 10.479C114.844 10.6372 114.873 10.7808 114.932 10.9097C114.996 11.0327 115.102 11.147 115.248 11.2524C115.395 11.3521 115.594 11.4458 115.846 11.5337C116.104 11.6216 116.426 11.7065 116.812 11.7886C117.539 11.9409 118.163 12.1372 118.685 12.3774C119.212 12.6118 119.616 12.9165 119.897 13.2915C120.179 13.6606 120.319 14.1294 120.319 14.6978C120.319 15.1196 120.229 15.5063 120.047 15.8579C119.871 16.2036 119.613 16.5054 119.273 16.7632C118.934 17.0151 118.526 17.2114 118.052 17.3521C117.583 17.4927 117.056 17.563 116.47 17.563C115.608 17.563 114.879 17.4106 114.281 17.106C113.684 16.7954 113.229 16.3999 112.919 15.9194C112.614 15.4331 112.462 14.9292 112.462 14.4077H114.51C114.533 14.8003 114.642 15.1138 114.835 15.3481C115.034 15.5767 115.28 15.7437 115.573 15.8491C115.872 15.9487 116.18 15.9985 116.496 15.9985C116.877 15.9985 117.196 15.9487 117.454 15.8491C117.712 15.7437 117.908 15.603 118.043 15.4272C118.178 15.2456 118.245 15.0405 118.245 14.812ZM127.253 7.87744V9.42432H121.892V7.87744H127.253ZM123.439 5.54834H125.557V14.7593C125.557 15.0522 125.598 15.2778 125.68 15.436C125.768 15.5884 125.888 15.6909 126.04 15.7437C126.193 15.7964 126.371 15.8228 126.576 15.8228C126.723 15.8228 126.864 15.814 126.998 15.7964C127.133 15.7788 127.241 15.7612 127.324 15.7437L127.332 17.3608C127.157 17.4136 126.951 17.4604 126.717 17.5015C126.489 17.5425 126.225 17.563 125.926 17.563C125.44 17.563 125.009 17.478 124.634 17.3081C124.259 17.1323 123.966 16.8481 123.755 16.4556C123.544 16.063 123.439 15.5415 123.439 14.8911V5.54834ZM131.876 7.87744V17.3872H129.749V7.87744H131.876ZM129.608 5.38135C129.608 5.05908 129.713 4.79248 129.924 4.58154C130.141 4.36475 130.44 4.25635 130.821 4.25635C131.196 4.25635 131.492 4.36475 131.709 4.58154C131.925 4.79248 132.034 5.05908 132.034 5.38135C132.034 5.69775 131.925 5.96143 131.709 6.17236C131.492 6.3833 131.196 6.48877 130.821 6.48877C130.44 6.48877 130.141 6.3833 129.924 6.17236C129.713 5.96143 129.608 5.69775 129.608 5.38135ZM137.016 9.90771V17.3872H134.898V7.87744H136.893L137.016 9.90771ZM136.639 12.2808L135.953 12.272C135.959 11.5981 136.053 10.98 136.234 10.4175C136.422 9.85498 136.68 9.37158 137.008 8.96729C137.342 8.56299 137.74 8.25244 138.203 8.03564C138.666 7.81299 139.181 7.70166 139.75 7.70166C140.207 7.70166 140.62 7.76611 140.989 7.89502C141.364 8.01807 141.683 8.22021 141.947 8.50146C142.217 8.78271 142.422 9.14893 142.562 9.6001C142.703 10.0454 142.773 10.5933 142.773 11.2437V17.3872H140.646V11.2349C140.646 10.7778 140.579 10.4175 140.444 10.1538C140.315 9.88428 140.125 9.69385 139.873 9.58252C139.627 9.46533 139.319 9.40674 138.95 9.40674C138.587 9.40674 138.262 9.48291 137.974 9.63525C137.687 9.7876 137.444 9.99561 137.245 10.2593C137.052 10.5229 136.902 10.8276 136.797 11.1733C136.691 11.519 136.639 11.8882 136.639 12.2808ZM151.017 15.48V10.9448C151.017 10.605 150.955 10.312 150.832 10.0659C150.709 9.81982 150.522 9.62939 150.27 9.49463C150.024 9.35986 149.713 9.29248 149.338 9.29248C148.992 9.29248 148.693 9.35107 148.442 9.46826C148.19 9.58545 147.993 9.74365 147.853 9.94287C147.712 10.1421 147.642 10.3677 147.642 10.6196H145.532C145.532 10.2446 145.623 9.88135 145.805 9.52979C145.986 9.17822 146.25 8.86475 146.596 8.58936C146.942 8.31396 147.355 8.09717 147.835 7.93896C148.316 7.78076 148.855 7.70166 149.452 7.70166C150.167 7.70166 150.8 7.82178 151.351 8.06201C151.907 8.30225 152.344 8.66553 152.66 9.15186C152.983 9.63232 153.144 10.2358 153.144 10.9624V15.1899C153.144 15.6235 153.173 16.0132 153.232 16.3589C153.296 16.6987 153.387 16.9946 153.504 17.2466V17.3872H151.333C151.234 17.1587 151.154 16.8687 151.096 16.5171C151.043 16.1597 151.017 15.814 151.017 15.48ZM151.324 11.604L151.342 12.9136H149.821C149.429 12.9136 149.083 12.9517 148.784 13.0278C148.485 13.0981 148.236 13.2036 148.037 13.3442C147.838 13.4849 147.689 13.6548 147.589 13.854C147.489 14.0532 147.44 14.2788 147.44 14.5308C147.44 14.7827 147.498 15.0142 147.615 15.2251C147.733 15.4302 147.902 15.5913 148.125 15.7085C148.354 15.8257 148.629 15.8843 148.951 15.8843C149.385 15.8843 149.763 15.7964 150.085 15.6206C150.413 15.439 150.671 15.2192 150.859 14.9614C151.046 14.6978 151.146 14.4487 151.157 14.2144L151.843 15.1548C151.773 15.395 151.652 15.6528 151.483 15.9282C151.313 16.2036 151.09 16.4673 150.815 16.7192C150.545 16.9653 150.22 17.1675 149.839 17.3257C149.464 17.4839 149.03 17.563 148.538 17.563C147.917 17.563 147.363 17.4399 146.877 17.1938C146.391 16.9419 146.01 16.605 145.734 16.1831C145.459 15.7554 145.321 15.272 145.321 14.7329C145.321 14.229 145.415 13.7837 145.603 13.397C145.796 13.0044 146.077 12.6763 146.446 12.4126C146.821 12.1489 147.278 11.9497 147.818 11.8149C148.357 11.6743 148.972 11.604 149.663 11.604H151.324ZM160.438 7.87744V9.42432H155.077V7.87744H160.438ZM156.623 5.54834H158.742V14.7593C158.742 15.0522 158.783 15.2778 158.865 15.436C158.953 15.5884 159.073 15.6909 159.225 15.7437C159.377 15.7964 159.556 15.8228 159.761 15.8228C159.908 15.8228 160.048 15.814 160.183 15.7964C160.318 15.7788 160.426 15.7612 160.508 15.7437L160.517 17.3608C160.341 17.4136 160.136 17.4604 159.902 17.5015C159.673 17.5425 159.41 17.563 159.111 17.563C158.624 17.563 158.194 17.478 157.819 17.3081C157.444 17.1323 157.151 16.8481 156.94 16.4556C156.729 16.063 156.623 15.5415 156.623 14.8911V5.54834ZM165.06 7.87744V17.3872H162.933V7.87744H165.06ZM162.793 5.38135C162.793 5.05908 162.898 4.79248 163.109 4.58154C163.326 4.36475 163.625 4.25635 164.006 4.25635C164.381 4.25635 164.676 4.36475 164.893 4.58154C165.11 4.79248 165.218 5.05908 165.218 5.38135C165.218 5.69775 165.11 5.96143 164.893 6.17236C164.676 6.3833 164.381 6.48877 164.006 6.48877C163.625 6.48877 163.326 6.3833 163.109 6.17236C162.898 5.96143 162.793 5.69775 162.793 5.38135ZM167.696 12.7378V12.5356C167.696 11.8501 167.796 11.2144 167.995 10.6284C168.194 10.0366 168.481 9.52393 168.856 9.09033C169.237 8.65088 169.7 8.31104 170.245 8.0708C170.796 7.82471 171.417 7.70166 172.108 7.70166C172.806 7.70166 173.427 7.82471 173.972 8.0708C174.522 8.31104 174.988 8.65088 175.369 9.09033C175.75 9.52393 176.04 10.0366 176.239 10.6284C176.438 11.2144 176.538 11.8501 176.538 12.5356V12.7378C176.538 13.4233 176.438 14.0591 176.239 14.645C176.04 15.231 175.75 15.7437 175.369 16.1831C174.988 16.6167 174.525 16.9565 173.98 17.2026C173.436 17.4429 172.817 17.563 172.126 17.563C171.429 17.563 170.805 17.4429 170.254 17.2026C169.709 16.9565 169.246 16.6167 168.865 16.1831C168.484 15.7437 168.194 15.231 167.995 14.645C167.796 14.0591 167.696 13.4233 167.696 12.7378ZM169.814 12.5356V12.7378C169.814 13.1655 169.858 13.5698 169.946 13.9507C170.034 14.3315 170.172 14.6655 170.359 14.9526C170.547 15.2397 170.787 15.4653 171.08 15.6294C171.373 15.7935 171.722 15.8755 172.126 15.8755C172.519 15.8755 172.858 15.7935 173.145 15.6294C173.438 15.4653 173.679 15.2397 173.866 14.9526C174.054 14.6655 174.191 14.3315 174.279 13.9507C174.373 13.5698 174.42 13.1655 174.42 12.7378V12.5356C174.42 12.1138 174.373 11.7153 174.279 11.3403C174.191 10.9595 174.051 10.6226 173.857 10.3296C173.67 10.0366 173.43 9.80811 173.137 9.64404C172.85 9.47412 172.507 9.38916 172.108 9.38916C171.71 9.38916 171.364 9.47412 171.071 9.64404C170.784 9.80811 170.547 10.0366 170.359 10.3296C170.172 10.6226 170.034 10.9595 169.946 11.3403C169.858 11.7153 169.814 12.1138 169.814 12.5356ZM181.134 9.90771V17.3872H179.016V7.87744H181.011L181.134 9.90771ZM180.756 12.2808L180.071 12.272C180.076 11.5981 180.17 10.98 180.352 10.4175C180.539 9.85498 180.797 9.37158 181.125 8.96729C181.459 8.56299 181.858 8.25244 182.321 8.03564C182.783 7.81299 183.299 7.70166 183.867 7.70166C184.324 7.70166 184.738 7.76611 185.107 7.89502C185.482 8.01807 185.801 8.22021 186.065 8.50146C186.334 8.78271 186.539 9.14893 186.68 9.6001C186.821 10.0454 186.891 10.5933 186.891 11.2437V17.3872H184.764V11.2349C184.764 10.7778 184.697 10.4175 184.562 10.1538C184.433 9.88428 184.242 9.69385 183.99 9.58252C183.744 9.46533 183.437 9.40674 183.068 9.40674C182.704 9.40674 182.379 9.48291 182.092 9.63525C181.805 9.7876 181.562 9.99561 181.363 10.2593C181.169 10.5229 181.02 10.8276 180.914 11.1733C180.809 11.519 180.756 11.8882 180.756 12.2808ZM195.108 14.812C195.108 14.6011 195.055 14.4106 194.95 14.2407C194.844 14.0649 194.642 13.9067 194.343 13.7661C194.05 13.6255 193.617 13.4966 193.042 13.3794C192.539 13.2681 192.076 13.1362 191.654 12.9839C191.238 12.8257 190.88 12.6353 190.582 12.4126C190.283 12.1899 190.051 11.9263 189.887 11.6216C189.723 11.3169 189.641 10.9653 189.641 10.5669C189.641 10.1802 189.726 9.81396 189.896 9.46826C190.066 9.12256 190.309 8.81787 190.626 8.5542C190.942 8.29053 191.326 8.08252 191.777 7.93018C192.234 7.77783 192.744 7.70166 193.306 7.70166C194.103 7.70166 194.786 7.83643 195.354 8.10596C195.928 8.36963 196.368 8.72998 196.672 9.18701C196.977 9.63818 197.129 10.1479 197.129 10.7163H195.011C195.011 10.4644 194.947 10.23 194.818 10.0132C194.695 9.79053 194.507 9.61182 194.255 9.47705C194.003 9.33643 193.687 9.26611 193.306 9.26611C192.943 9.26611 192.641 9.32471 192.401 9.44189C192.167 9.55322 191.991 9.69971 191.874 9.88135C191.762 10.063 191.707 10.2622 191.707 10.479C191.707 10.6372 191.736 10.7808 191.794 10.9097C191.859 11.0327 191.964 11.147 192.111 11.2524C192.257 11.3521 192.457 11.4458 192.709 11.5337C192.966 11.6216 193.289 11.7065 193.675 11.7886C194.402 11.9409 195.026 12.1372 195.547 12.3774C196.075 12.6118 196.479 12.9165 196.76 13.2915C197.042 13.6606 197.182 14.1294 197.182 14.6978C197.182 15.1196 197.091 15.5063 196.91 15.8579C196.734 16.2036 196.476 16.5054 196.136 16.7632C195.796 17.0151 195.389 17.2114 194.915 17.3521C194.446 17.4927 193.918 17.563 193.333 17.563C192.471 17.563 191.742 17.4106 191.144 17.106C190.546 16.7954 190.092 16.3999 189.782 15.9194C189.477 15.4331 189.325 14.9292 189.325 14.4077H191.373C191.396 14.8003 191.504 15.1138 191.698 15.3481C191.897 15.5767 192.143 15.7437 192.436 15.8491C192.735 15.9487 193.042 15.9985 193.359 15.9985C193.74 15.9985 194.059 15.9487 194.317 15.8491C194.575 15.7437 194.771 15.603 194.906 15.4272C195.041 15.2456 195.108 15.0405 195.108 14.812Z" fill="#1262AE"/>
<path d="M211.947 12.3872H227.947" stroke="#1262AE" stroke-width="2" stroke-linecap="round" stroke-linejoin="round"/>
<path d="M220.947 5.38721L227.947 12.3872L220.947 19.3872" stroke="#1262AE" stroke-width="2" stroke-linecap="round" stroke-linejoin="round"/>
</svg>
